<svg width="132" height="21" viewBox="0 0 132 21" fill="none" xmlns="http://www.w3.org/2000/svg"><path d="M57.5236 12.0778C56.37 10.3652 53.588 9.45321 51.5972 8.91581C51.3651 8.85474 51.1236 8.79367 50.8671 8.72989H50.8467C49.7746 8.45847 48.5574 8.15856 47.6101 7.64423C46.5244 7.04983 45.9925 6.27901 45.9925 5.28834C45.9913 5.12756 46.0063 4.96707 46.0373 4.80929V4.78079C46.0526 4.70795 46.0716 4.63594 46.0943 4.56502C46.0968 4.55532 46.1 4.54581 46.1038 4.53652V4.52566C46.2441 4.11481 46.4794 3.74285 46.7904 3.44C47.5952 2.62576 48.879 2.16842 50.3188 2.16842H50.3636C51.4238 2.1918 52.4672 2.43728 53.4265 2.88903C54.3851 3.32417 55.2516 3.93866 55.9792 4.69937L55.9968 6.76348V6.7852H57.7882V0.569784H56.0009V1.97843C56.0009 1.98873 55.9983 1.99886 55.9933 2.00788C55.9883 2.0169 55.9811 2.0245 55.9724 2.03C55.9561 2.03 55.9344 2.01914 55.9236 2.00829C55.1667 1.43291 54.3247 0.979162 53.4279 0.663423C52.4663 0.334232 51.4586 0.159268 50.4423 0.14502C49.2766 0.14502 48.3239 0.280727 47.5287 0.539929C46.8673 0.760374 46.2529 1.10233 45.717 1.54824C45.1345 2.0034 44.6665 2.58851 44.3504 3.2568C44.0449 3.90079 43.8846 4.60405 43.8809 5.31684C43.8722 5.73882 43.9247 6.15983 44.0369 6.56671C44.1755 7.01714 44.3814 7.44402 44.6476 7.83286C44.6707 7.8695 44.6978 7.90478 44.7223 7.94007C44.7467 7.97535 44.748 7.97399 44.7602 7.99164L44.7765 8.01335C45.9504 9.63506 48.5709 10.3529 50.483 10.8809L50.536 10.8944L50.9607 11.0125L51.4208 11.136C52.4173 11.3799 53.3922 11.7049 54.3358 12.1077C54.8283 12.3245 55.2629 12.6541 55.6047 13.0698C55.9209 13.4552 56.1351 13.9139 56.2275 14.4038C56.3173 14.8922 56.2804 15.3954 56.1203 15.8654C55.9328 16.4065 55.6219 16.8967 55.2125 17.2971C54.7633 17.697 54.2361 17.9992 53.664 18.1846C53.1078 18.3641 52.5299 18.4677 51.946 18.4927C51.0114 18.5378 50.0757 18.4319 49.1748 18.1792C47.6481 17.6961 46.2544 16.7638 45.3506 15.6252C45.3205 15.5883 45.2979 15.5459 45.2841 15.5003L45.2664 13.7253V13.7022H43.4751V20.1999H45.2678V18.3C46.0164 18.9589 46.8843 19.4684 47.8245 19.8009C48.9238 20.2063 50.0825 20.4273 51.2539 20.455H51.3991C52.3938 20.455 54.7212 20.455 56.5465 18.9093C57.0518 18.472 57.4703 17.9435 57.78 17.3514C58.0778 16.7812 58.2722 16.1628 58.3541 15.5248C58.4376 14.9136 58.4091 14.2923 58.27 13.6914C58.1387 13.1066 57.8842 12.5565 57.5236 12.0778V12.0778Z" fill="black"></path><path d="M39.8356 12.0778C38.7052 10.3733 35.9123 9.45728 33.9093 8.91716C33.6813 8.85745 33.4452 8.7991 33.1941 8.73667C31.0228 8.20063 28.3195 7.53159 28.2883 5.28291C28.2882 4.94422 28.3599 4.60937 28.4986 4.30039C28.6482 3.97575 28.8561 3.68135 29.112 3.43186C29.9263 2.62847 31.2033 2.16706 32.6323 2.16706H32.6771C33.7364 2.19001 34.779 2.43553 35.7373 2.88767C36.6919 3.32205 37.5536 3.93676 38.275 4.69801L38.3103 6.76213V6.7852H40.1016V0.569784H38.3143V1.97843C38.3142 1.98856 38.3117 1.99853 38.307 2.0075C38.3023 2.01646 38.2955 2.02418 38.2872 2.03C38.2736 2.03 38.2574 2.03 38.237 2.00829C37.4801 1.43291 36.6381 0.979162 35.7413 0.663423C34.7797 0.334232 33.7721 0.159268 32.7558 0.14502C31.5832 0.14502 30.6279 0.280727 29.8353 0.539929C29.1762 0.760907 28.5641 1.10285 28.0304 1.54824C27.4479 2.0034 26.9799 2.58851 26.6638 3.2568C26.3566 3.90223 26.1954 4.60744 26.1916 5.32227C26.1829 5.74362 26.2346 6.16404 26.3449 6.57078C26.4803 7.01827 26.6806 7.44349 26.9393 7.83286C28.0643 9.5862 30.8165 10.3394 32.8263 10.8904L32.8738 10.9026L33.2728 11.0125L33.6935 11.1251L33.7329 11.136C34.7294 11.3797 35.7044 11.7047 36.6479 12.1077C37.1421 12.328 37.5787 12.6596 37.9235 13.0766C38.2411 13.4661 38.4561 13.9289 38.5491 14.4228C38.6376 14.912 38.5993 15.4156 38.4378 15.8858C38.2486 16.4266 37.9359 16.9159 37.5245 17.3148C37.0784 17.7136 36.553 18.0137 35.9829 18.1955C35.4253 18.374 34.8459 18.4754 34.2608 18.4968C34.14 18.4968 34.0138 18.5049 33.8862 18.5049C33.0683 18.5069 32.2541 18.3959 31.4665 18.1751C31.3756 18.1466 31.2833 18.1154 31.1951 18.0829H31.1816C30.9983 18.0177 30.8151 17.9471 30.6387 17.8644C29.7532 17.4762 28.9432 16.9345 28.2462 16.2644L28.2109 16.2304C28.1023 16.1219 27.9924 16.0065 27.8866 15.8858L27.8051 15.7921C27.7576 15.7365 27.7115 15.6822 27.6694 15.6252C27.6402 15.5884 27.6181 15.5466 27.6043 15.5017L27.5867 13.7266V13.7036H25.7695V20.2013H27.5799V18.3013C28.3285 18.9603 29.1964 19.4697 30.1366 19.8023C31.2359 20.2077 32.3946 20.4287 33.5659 20.4564H33.7111C34.7005 20.4564 37.017 20.4564 38.8585 18.9107C39.3639 18.4734 39.7823 17.9449 40.0921 17.3528C40.3899 16.7862 40.5852 16.1715 40.6689 15.537C40.7524 14.9258 40.7239 14.3045 40.5847 13.7036C40.4538 13.1144 40.1984 12.5601 39.8356 12.0778V12.0778Z" fill="black"></path><path d="M21.4621 18.6558L16.5657 11.2529C17.3953 11.2847 18.2211 11.1245 18.9786 10.7847C20.0493 10.2419 20.9097 9.55386 21.4376 8.53605C21.8667 7.69581 22.0891 6.76533 22.0863 5.82189C22.0853 4.33793 21.5003 2.91398 20.4578 1.85787C19.326 0.831924 17.9133 0.33252 16.1369 0.33252H6.64956V2.38035H8.66347V18.6802H6.47314V20.3928H12.831V18.6802H10.7832V11.2828H14.2098L19.0071 18.6802H16.8276V20.3928H23.67V18.6802H21.5299C21.5175 18.681 21.5051 18.6792 21.4935 18.675C21.4818 18.6708 21.4711 18.6643 21.4621 18.6558ZM10.7832 2.28807H16.031C17.6432 2.28807 18.8809 2.92861 19.5079 4.0292C19.8098 4.58177 19.9633 5.2032 19.9533 5.83281C19.9433 6.46241 19.7702 7.07866 19.4509 7.62138C18.8076 8.70704 18.0477 9.30687 16.3622 9.30687H10.7832V2.28807Z" fill="black"></path><path d="M74.7015 14.461C74.7015 12.0033 73.4598 10.2283 71.3997 9.46697C73.1463 8.54958 73.9171 7.04051 73.9171 5.48666C73.9171 1.89991 70.9085 0 66.9851 0C64.8437 0.0162849 62.5611 0.72875 61.0018 2.91771L62.6303 3.98031C63.5029 2.80643 64.746 1.89991 66.9851 1.89991C69.835 1.89991 71.857 3.05749 71.857 5.26139C71.857 7.373 69.8296 8.54958 67.7532 8.54958H64.9251V10.5852H67.9175C70.5651 10.5852 72.6577 12.0115 72.5926 14.4379C72.4447 17.0164 70.1729 18.402 67.1982 18.402C65.2847 18.402 63.1595 17.7994 61.5731 16.1031L61.4917 16.0719L60.1021 17.5931L60.1672 17.6094C62.1621 19.4808 64.5329 20.4484 67.1982 20.4484C71.302 20.4403 74.7015 18.2201 74.7015 14.461Z" fill="black"></path><path d="M5.15418 9.29346H0V11.3983H5.15418V9.29346Z" fill="#0B70FF"></path><path d="M81.9999 9.29346H76.8457V11.3983H81.9999V9.29346Z" fill="#0B70FF"></path><path d="M98.9648 6.4541V3.25488H90.7764V8.95508H97.8984V11.3418H90.7764V17.6133H98.9648V14.1221H101.326V20H85.4189V17.6133H87.8818V3.25488H85.4189V0.868164H101.326V6.4541H98.9648Z" fill="black"></path><path d="M113.552 7.62207V6.65723H115.888V11.71H113.552C113.45 10.7367 113.061 9.99609 112.384 9.48828C111.707 8.97201 110.924 8.71387 110.035 8.71387C109.273 8.71387 108.588 8.91699 107.979 9.32324C107.378 9.72949 106.912 10.2796 106.582 10.9736C106.252 11.6676 106.087 12.4251 106.087 13.2461C106.087 14.6426 106.459 15.7852 107.204 16.6738C107.949 17.554 108.931 17.9941 110.149 17.9941C112.037 17.9941 113.37 17.1182 114.148 15.3662L116.332 16.4072C115.105 19.0648 113.006 20.3936 110.035 20.3936C108.706 20.3936 107.526 20.0804 106.493 19.4541C105.461 18.8278 104.661 17.9688 104.094 16.877C103.535 15.7852 103.256 14.5749 103.256 13.2461C103.256 11.9427 103.539 10.7578 104.106 9.69141C104.682 8.625 105.469 7.79557 106.468 7.20312C107.466 6.60221 108.579 6.30176 109.807 6.30176C111.262 6.30176 112.511 6.74186 113.552 7.62207Z" fill="black"></path><path d="M131.973 13.3477C131.973 14.6426 131.664 15.8275 131.046 16.9023C130.428 17.9772 129.586 18.8278 128.52 19.4541C127.453 20.0804 126.272 20.3936 124.978 20.3936C123.64 20.3936 122.434 20.0804 121.359 19.4541C120.285 18.8278 119.447 17.9772 118.846 16.9023C118.253 15.8275 117.957 14.6426 117.957 13.3477C117.957 11.9935 118.253 10.7832 118.846 9.7168C119.447 8.65039 120.28 7.81673 121.347 7.21582C122.413 6.60645 123.623 6.30176 124.978 6.30176C126.289 6.30176 127.479 6.62337 128.545 7.2666C129.611 7.90137 130.449 8.75618 131.059 9.83105C131.668 10.9059 131.973 12.0781 131.973 13.3477ZM124.978 17.8418C125.756 17.8418 126.471 17.6387 127.123 17.2324C127.775 16.8262 128.283 16.2803 128.646 15.5947C129.01 14.9092 129.192 14.1602 129.192 13.3477C129.192 12.5521 129.01 11.8115 128.646 11.126C128.283 10.4404 127.775 9.8903 127.123 9.47559C126.471 9.05241 125.748 8.84082 124.952 8.84082C124.174 8.84082 123.458 9.04818 122.807 9.46289C122.155 9.86914 121.643 10.4193 121.271 11.1133C120.898 11.8073 120.712 12.5521 120.712 13.3477C120.712 14.1432 120.898 14.888 121.271 15.582C121.643 16.276 122.159 16.8262 122.819 17.2324C123.479 17.6387 124.199 17.8418 124.978 17.8418Z" fill="black"></path></svg>
