<svg xmlns="http://www.w3.org/2000/svg" fill="none" viewBox="0 0 173 30"><path fill="#000" d="M49.775 20.243c-.065-.13-.12-.28-.166-.449a5.978 5.978 0 0 1-.117-.537 3.56 3.56 0 0 1-.517.459c-.196.143-.414.27-.655.38a3.787 3.787 0 0 1-.78.245 4.182 4.182 0 0 1-.929.098c-.54 0-1.038-.079-1.494-.235a3.546 3.546 0 0 1-1.162-.654 2.994 2.994 0 0 1-.762-.996 2.964 2.964 0 0 1-.273-1.27c0-1.113.413-1.972 1.24-2.578.834-.612 2.074-.918 3.72-.918h1.515v-.625c0-.508-.167-.908-.498-1.201-.332-.3-.811-.45-1.436-.45-.553 0-.957.121-1.211.362-.254.234-.38.55-.38.947h-2.716c0-.449.098-.875.293-1.279.202-.404.492-.758.87-1.064a4.345 4.345 0 0 1 1.396-.723c.553-.182 1.185-.274 1.894-.274.639 0 1.23.079 1.778.235a4.269 4.269 0 0 1 1.435.693c.404.306.72.694.948 1.162.227.463.341 1 .341 1.612v4.53c0 .567.036 1.036.108 1.407.071.371.176.69.312.957v.166h-2.754Zm-2.587-1.904a2.837 2.837 0 0 0 1.396-.352 1.978 1.978 0 0 0 .81-.762V15.41h-1.386c-.423 0-.785.042-1.084.127-.3.078-.544.192-.733.342a1.331 1.331 0 0 0-.42.527 1.595 1.595 0 0 0-.136.664c0 .365.127.668.38.909.261.24.652.36 1.172.36Zm15.585-8.858c.41 0 .788.03 1.133.088.352.052.635.111.85.176l-.4 2.705a8.667 8.667 0 0 0-1.104-.185 8.737 8.737 0 0 0-1.065-.069c-.761 0-1.373.147-1.835.44-.456.293-.798.713-1.026 1.26v6.347h-2.715V9.677h2.53l.127 1.728A4.796 4.796 0 0 1 60.81 10a3.863 3.863 0 0 1 1.963-.518Zm11.182 7.451.918-7.256h2.49L75.47 20.242h-2.383L71.7 13.523l-1.338 6.72h-2.383L66.084 9.675h2.48l.918 7.285 1.329-7.285h1.816l1.328 7.256Zm10.381 3.507c-.814 0-1.553-.134-2.217-.4a5.285 5.285 0 0 1-1.709-1.085 4.876 4.876 0 0 1-1.103-1.621 5.268 5.268 0 0 1-.381-2.002v-.39c0-.808.127-1.543.38-2.208a5.12 5.12 0 0 1 1.065-1.728 4.8 4.8 0 0 1 1.621-1.123 5.142 5.142 0 0 1 2.041-.4c.762 0 1.439.126 2.031.38a4.12 4.12 0 0 1 1.514 1.055c.417.456.733 1.006.947 1.65a6.61 6.61 0 0 1 .323 2.12v1.152H81.68c.052.358.156.687.312.986a2.727 2.727 0 0 0 1.465 1.26c.32.117.667.176 1.045.176.267 0 .53-.026.791-.078a4.12 4.12 0 0 0 .762-.225c.24-.104.465-.231.673-.38a2.61 2.61 0 0 0 .547-.528l1.358 1.465c-.17.24-.39.478-.664.713a4.573 4.573 0 0 1-.957.615 6.243 6.243 0 0 1-1.221.43c-.45.11-.934.166-1.455.166Zm-.322-8.76a2.08 2.08 0 0 0-.84.166 1.97 1.97 0 0 0-.674.459 2.736 2.736 0 0 0-.478.722c-.13.28-.228.593-.294.938h4.454v-.215a2.568 2.568 0 0 0-.166-.81 1.853 1.853 0 0 0-.42-.655 1.864 1.864 0 0 0-.674-.44 2.309 2.309 0 0 0-.908-.165Zm13.808 8.564c-.065-.13-.12-.28-.166-.449a5.944 5.944 0 0 1-.117-.537 3.56 3.56 0 0 1-.517.459c-.196.143-.414.27-.655.38a3.79 3.79 0 0 1-.781.245 4.182 4.182 0 0 1-.928.098c-.54 0-1.038-.079-1.494-.235a3.546 3.546 0 0 1-1.162-.654 2.992 2.992 0 0 1-.762-.996 2.964 2.964 0 0 1-.273-1.27c0-1.113.413-1.972 1.24-2.578.833-.612 2.074-.918 3.72-.918h1.514v-.625c0-.508-.166-.908-.498-1.201-.332-.3-.81-.45-1.435-.45-.554 0-.957.121-1.211.362-.254.234-.381.55-.381.947h-2.715c0-.449.098-.875.293-1.279.202-.404.492-.758.87-1.064a4.345 4.345 0 0 1 1.396-.723c.553-.182 1.185-.274 1.894-.274.638 0 1.23.079 1.778.235a4.27 4.27 0 0 1 1.435.693c.404.306.72.694.947 1.162.228.463.342 1 .342 1.612v4.53c0 .567.036 1.036.108 1.407.071.371.176.69.312.957v.166h-2.754Zm-2.588-1.904a2.838 2.838 0 0 0 1.397-.352 2.35 2.35 0 0 0 .488-.351c.137-.137.244-.274.322-.41v-1.817h-1.386a4.03 4.03 0 0 0-1.084.127c-.3.078-.544.192-.733.342a1.314 1.314 0 0 0-.42.527 1.594 1.594 0 0 0-.136.664c0 .365.127.668.38.909.26.24.652.36 1.172.36Zm12.491-1.232.136.762.137-.732 2.324-7.461h2.832l-4.013 10.566h-2.549l-4.033-10.566h2.832l2.334 7.431Zm12.646 3.332c-.814 0-1.553-.134-2.217-.4a5.295 5.295 0 0 1-1.709-1.085 4.873 4.873 0 0 1-1.103-1.621 5.266 5.266 0 0 1-.381-2.002v-.39c0-.808.127-1.543.381-2.208a5.132 5.132 0 0 1 1.064-1.728 4.802 4.802 0 0 1 1.621-1.123 5.144 5.144 0 0 1 2.041-.4c.762 0 1.439.126 2.032.38a4.116 4.116 0 0 1 1.513 1.055c.417.456.733 1.006.948 1.65.215.638.322 1.345.322 2.12v1.152h-7.168c.052.358.156.687.312.986.163.293.368.547.616.762.247.215.53.38.849.498.319.117.668.176 1.045.176.267 0 .531-.026.791-.078.267-.052.521-.127.762-.225.241-.104.465-.231.674-.38.208-.15.39-.326.547-.528l1.357 1.465c-.169.24-.391.478-.664.713a4.575 4.575 0 0 1-.957.615 6.241 6.241 0 0 1-1.221.43c-.449.11-.934.166-1.455.166Zm-.322-8.76c-.306 0-.586.055-.84.166a1.977 1.977 0 0 0-.674.459 2.725 2.725 0 0 0-.478.722c-.13.28-.228.593-.293.938h4.453v-.215a2.557 2.557 0 0 0-.166-.81 1.863 1.863 0 0 0-.42-.655 1.861 1.861 0 0 0-.674-.44 2.306 2.306 0 0 0-.908-.165ZM130 18.67c0-.254.042-.488.127-.703.085-.222.208-.41.371-.567a1.7 1.7 0 0 1 .596-.38c.234-.098.498-.147.791-.147.293 0 .557.049.791.146.234.092.43.219.586.381.163.157.286.345.371.567.091.215.137.449.137.703 0 .247-.046.478-.137.693a1.648 1.648 0 0 1-.371.567 1.66 1.66 0 0 1-.586.37 2.167 2.167 0 0 1-.791.137 2.17 2.17 0 0 1-.791-.136 1.778 1.778 0 0 1-.596-.371 1.648 1.648 0 0 1-.371-.567 1.868 1.868 0 0 1-.127-.693Zm8.896-3.808c0-.768.11-1.478.332-2.129a4.944 4.944 0 0 1 .966-1.709c.43-.481.951-.859 1.563-1.132.618-.274 1.325-.41 2.119-.41.794 0 1.501.136 2.119.41a4.42 4.42 0 0 1 1.563 1.132 4.87 4.87 0 0 1 .976 1.71c.222.65.332 1.36.332 2.128v.205c0 .775-.11 1.491-.332 2.149a4.945 4.945 0 0 1-.967 1.7c-.423.48-.944.858-1.562 1.132-.619.267-1.322.4-2.109.4-.795 0-1.504-.133-2.129-.4a4.535 4.535 0 0 1-1.573-1.133 4.96 4.96 0 0 1-.966-1.7 6.678 6.678 0 0 1-.332-2.148v-.205Zm2.714.205c0 .443.043.86.127 1.25.085.384.219.723.401 1.016.182.287.416.514.703.684.293.169.644.253 1.055.253.397 0 .739-.084 1.025-.253.286-.17.518-.398.693-.684.183-.293.316-.631.401-1.016a5.93 5.93 0 0 0 .127-1.25v-.205c0-.43-.043-.836-.127-1.22a3.21 3.21 0 0 0-.401-1.016 1.961 1.961 0 0 0-.693-.693c-.286-.17-.635-.254-1.045-.254-.404 0-.749.084-1.035.254-.287.169-.521.4-.703.693a3.233 3.233 0 0 0-.401 1.016 5.702 5.702 0 0 0-.127 1.22v.205Zm17.257-5.586c.41 0 .788.03 1.133.088.352.052.635.111.85.176l-.401 2.705a8.675 8.675 0 0 0-1.103-.185 8.74 8.74 0 0 0-1.065-.069c-.761 0-1.373.147-1.836.44-.455.293-.797.713-1.025 1.26v6.347h-2.715V9.677h2.529l.127 1.728A4.799 4.799 0 0 1 156.904 10a3.866 3.866 0 0 1 1.963-.518Zm4.151 5.401c0-.8.097-1.533.293-2.197a5.19 5.19 0 0 1 .859-1.71c.371-.475.82-.842 1.348-1.103.527-.26 1.123-.39 1.787-.39.618 0 1.149.104 1.592.312a3.2 3.2 0 0 1 1.132.889l.108-1.006h2.471V19.9c0 .716-.124 1.355-.372 1.914a3.858 3.858 0 0 1-1.025 1.416 4.327 4.327 0 0 1-1.582.87 6.458 6.458 0 0 1-2.031.302 5.86 5.86 0 0 1-1.026-.097 5.988 5.988 0 0 1-1.084-.303 5.013 5.013 0 0 1-1.015-.527 3.357 3.357 0 0 1-.821-.752l1.221-1.65c.345.39.736.686 1.172.888a3.24 3.24 0 0 0 1.416.312c.762 0 1.354-.205 1.777-.615.43-.403.645-.98.645-1.728v-.606a3.4 3.4 0 0 1-1.123.82c-.423.196-.915.294-1.475.294a3.89 3.89 0 0 1-1.777-.4 4.1 4.1 0 0 1-1.338-1.124 5.218 5.218 0 0 1-.859-1.69 7.458 7.458 0 0 1-.293-2.138v-.205Zm2.724.205c0 .443.043.856.127 1.24.091.378.228.71.41.996.183.28.414.502.694.664.28.163.612.245.996.245.475 0 .866-.092 1.172-.274.312-.182.56-.436.742-.762v-4.472a1.902 1.902 0 0 0-.742-.762c-.306-.182-.69-.274-1.153-.274-.384 0-.716.085-.996.254-.28.163-.514.391-.703.684a3.258 3.258 0 0 0-.41 1.016 5.37 5.37 0 0 0-.137 1.24v.205Z"/><path stroke="#000" stroke-width="2.5" d="M15.54 28.67c7.345 0 13.3-5.954 13.3-13.3 0-7.344-5.955-13.299-13.3-13.299-7.345 0-13.3 5.955-13.3 13.3 0 7.345 5.955 13.3 13.3 13.3Z"/><path fill="#000" d="M17.385 20.243c-.065-.13-.12-.28-.166-.449a5.979 5.979 0 0 1-.117-.537 3.7 3.7 0 0 1-1.172.839 3.788 3.788 0 0 1-.782.245 4.181 4.181 0 0 1-.927.098c-.54 0-1.039-.079-1.494-.235a3.547 3.547 0 0 1-1.163-.654 2.994 2.994 0 0 1-.761-.996 2.964 2.964 0 0 1-.274-1.27c0-1.113.414-1.972 1.24-2.578.834-.612 2.074-.918 3.721-.918h1.514v-.625c0-.508-.166-.908-.498-1.201-.332-.3-.81-.45-1.436-.45-.553 0-.957.121-1.21.362-.255.234-.381.55-.381.947h-2.715c0-.449.097-.875.293-1.279.201-.404.491-.758.869-1.064.384-.306.85-.547 1.396-.723.554-.182 1.185-.274 1.895-.274.638 0 1.23.079 1.777.235a4.27 4.27 0 0 1 1.436.693c.403.306.72.694.947 1.162.228.463.342 1 .342 1.612v4.53c0 .567.035 1.036.107 1.407s.176.69.313.957v.166h-2.754Zm-2.588-1.904a2.838 2.838 0 0 0 1.396-.352c.19-.104.352-.221.489-.351.136-.137.244-.274.322-.41v-1.817h-1.387a4.03 4.03 0 0 0-1.084.127c-.3.078-.543.192-.732.342a1.314 1.314 0 0 0-.42.527 1.595 1.595 0 0 0-.137.664c0 .365.127.668.381.909.26.24.651.36 1.172.36Z"/></svg>