<svg fill="none" height="476" viewBox="0 0 1519 476" width="1519" xmlns="http://www.w3.org/2000/svg" xmlns:xlink="http://www.w3.org/1999/xlink"><clipPath id="a"><path d="m0 0h1519v475.174h-1519z"/></clipPath><g clip-path="url(#a)"><path clip-rule="evenodd" d="m265.34 5.76572 49.775 89.82848c4.261 7.6998-1.066 17.3088-9.588 17.3088h-99.538c-8.534 0-13.849-9.609-9.588-17.3088l49.763-89.82848c4.273-7.68763 14.915-7.68763 19.176 0zm270.716 155.95228-16.29 40.089h-43.613l81.972-187.0805h42.038l82.235 187.0805h-44.665l-16.289-40.089h-.014l-42.548-104.4976-42.548 104.4976zm245.708 40.089 79.603-187.0805h-42.298l-56.751 133.6285-55.962-133.6285h-45.978l79.345 187.0805zm98.766 0 16.288-40.089h.28l42.548-104.4976 42.548 104.4976h.015l7.182 17.684 2.649 6.498h-.008l6.466 15.907h44.662l-82.232-187.0805h-42.042l-81.971 187.0805zm252.74 0v-151.8025h61.28l14.6-35.278h-194.33l14.6 35.278h61.28v151.8025zm88.99 0 16.29-40.089h.27l42.55-104.4976 42.55 104.4976h.01l16.3 40.089h44.65l-82.22-187.0805h-42.05l-81.97 187.0805zm210.33-187.0805 1.74.0105c15.55.1903 29.12 2.9484 40.69 8.2744 12 5.5234 21.23 13.363 27.72 23.5187 6.48 10.1558 9.72 22.1824 9.72 36.0801 0 13.8969-3.28 25.8788-9.86 35.9458-6.34 9.719-15.25 17.239-26.73 22.557l-1.25.561 41.26 60.133h-45.72l-35.47-52.115h-.01l-23.37-34.477h18.91c12.38 0 21.88-2.67 28.51-8.009l.66-.543c6.66-5.702 9.98-13.7189 9.98-24.0528 0-10.5125-3.32-18.5747-9.98-24.1871-6.45-5.4314-15.76-8.2346-27.94-8.4099l-1.23-.0087h-60.21l-17.03-35.278zm-1162.668 205.2235c-2.887-5.177-9.281-6.95-14.296-3.963s-6.728 9.615-3.83 14.804c0 0 88.077 157.853 116.934 209.558 4.037 7.211-1.047 16.172-9.109 16.172h-91.148c-9.374 0-18.035-5.177-22.715-13.578l-48.57-87.024c-4.038-7.224-14.113-7.224-18.138 0l-48.582 87.071c-4.669 8.378-13.307 13.531-22.657 13.531h-97.1758c-8.0509 0-13.0885-9.02-9.06302-16.244l166.90782-299.117c4.669-8.366 13.307-13.531 22.657-13.531h124.342c9.373 0 18.022 5.177 22.715 13.578l166.873 299.07c4.038 7.224-1 16.244-9.062 16.244h-79.073c-9.27 0-17.861-5.129-22.508-13.447zm830.878 121.92c4.79 0 9.19-.824 13.19-2.474 4-1.649 7.41-4.065 10.21-7.245l-5.69-5.567c-4.68 4.948-10.43 7.422-17.27 7.422-4.55 0-8.67-1.03-12.36-3.092-3.67-2.062-6.55-4.904-8.63-8.527-2.07-3.623-3.11-7.672-3.11-12.15 0-4.476 1.04-8.526 3.11-12.148 2.08-3.623 4.96-6.465 8.63-8.527 3.69-2.062 7.81-3.093 12.36-3.093 6.89 0 12.65 2.445 17.27 7.334l5.69-5.567c-2.8-3.18-6.19-5.581-10.16-7.201-3.98-1.62-8.36-2.429-13.15-2.429-6.13 0-11.68 1.369-16.65 4.108-4.96 2.739-8.85 6.509-11.65 11.31-2.81 4.801-4.21 10.205-4.21 16.213 0 6.009 1.4 11.414 4.21 16.215 2.8 4.801 6.67 8.57 11.61 11.31 4.93 2.739 10.47 4.108 16.6 4.108zm-420.735-.706 6.748-15.463h32.598l6.746 15.463h9.201l-27.865-61.852h-8.675l-27.778 61.852zm9.815-22.532 13.231-30.307 13.232 30.307zm108.164-39.32-26.898 61.852h-8.675l-26.989-61.852h9.463l22.083 50.806 22.26-50.806zm9.153 61.852 6.746-15.463h32.6l6.746 15.463h9.2l-27.864-61.852h-8.678l-27.778 61.852zm23.042-52.839-13.227 30.307h26.462zm86.879 52.839v-7.688h-33.215v-54.164h-8.764v61.852zm20.363-15.463-6.746 15.463h-9.029l27.779-61.852h8.677l27.864 61.852h-9.2l-6.745-15.463zm3.069-7.069 13.227-30.307 13.234 30.307zm66.89-23.592v46.124h-8.756v-61.852h7.186l36.8 46.123v-46.123h8.76v61.852h-7.18zm141.59 18.556v27.568h-8.76v-61.852h8.76v26.596h35.23v-26.596h8.76v61.852h-8.76v-27.568zm110.45 27.568v-7.688h-35.75v-19.969h30.75v-7.51h-30.75v-18.998h34.52v-7.687h-43.28v61.852zm51.33-15.463-6.74 15.463h-9.03l27.78-61.852h8.67l27.87 61.852h-9.2l-6.75-15.463zm3.07-7.069 13.23-30.307 13.23 30.307zm89.15 20.896c-3.56 1.562-7.94 2.342-13.14 2.342-4.62 0-9.07-.721-13.36-2.165-4.3-1.442-7.68-3.313-10.13-5.611l3.25-6.891c2.33 2.12 5.33 3.843 8.98 5.169 3.64 1.325 7.4 1.988 11.26 1.988 5.08 0 8.88-.869 11.39-2.607 2.51-1.737 3.76-4.049 3.76-6.936 0-2.121-.68-3.844-2.05-5.169-1.37-1.326-3.07-2.341-5.08-3.049-2.02-.706-4.87-1.502-8.55-2.385-4.62-1.119-8.34-2.239-11.17-3.358s-5.26-2.842-7.27-5.169c-2.02-2.326-3.03-5.463-3.03-9.41 0-3.299.86-6.273 2.59-8.924 1.72-2.651 4.33-4.771 7.84-6.362 3.5-1.591 7.86-2.385 13.05-2.385 3.63 0 7.19.471 10.7 1.413 3.5.942 6.51 2.298 9.03 4.064l-2.9 7.07c-2.57-1.65-5.31-2.902-8.23-3.756-2.93-.854-5.79-1.281-8.6-1.281-4.96 0-8.68.913-11.17 2.739-2.48 1.826-3.72 4.182-3.72 7.069 0 2.12.7 3.843 2.1 5.168 1.4 1.326 3.14 2.357 5.21 3.093 2.08.737 4.9 1.517 8.46 2.341 4.62 1.12 8.33 2.239 11.14 3.359 2.8 1.118 5.21 2.826 7.22 5.124s3.03 5.39 3.03 9.278c0 3.24-.88 6.2-2.64 8.88-1.75 2.68-4.41 4.8-7.97 6.361zm35.7-60.216h-8.76v61.852h8.76zm28.43 46.389-6.75 15.463h-9.02l27.77-61.852h8.68l27.87 61.852h-9.2l-6.76-15.463zm3.06-7.069 13.24-30.307 13.23 30.307zm-464.53 128.891c-3.56 1.561-7.94 2.342-13.144 2.342-4.611 0-9.067-.722-13.359-2.165-4.3-1.444-7.673-3.314-10.127-5.611l3.248-6.892c2.337 2.121 5.329 3.843 8.982 5.169 3.646 1.325 7.4 1.988 11.256 1.988 5.087 0 8.884-.869 11.384-2.607 2.52-1.738 3.78-4.05 3.78-6.936 0-2.121-.69-3.844-2.06-5.169s-3.07-2.341-5.09-3.048c-2.008-.707-4.859-1.503-8.536-2.386-4.619-1.119-8.343-2.238-11.178-3.357-2.828-1.12-5.258-2.843-7.268-5.17-2.017-2.326-3.022-5.463-3.022-9.41 0-3.299.857-6.274 2.578-8.924 1.729-2.65 4.339-4.772 7.844-6.361 3.506-1.591 7.86-2.386 13.056-2.386 3.622 0 7.186.471 10.696 1.413 3.5.943 6.51 2.298 9.02 4.065l-2.89 7.068c-2.57-1.649-5.31-2.9-8.23-3.755-2.925-.854-5.792-1.281-8.596-1.281-4.962 0-8.686.913-11.17 2.739-2.485 1.826-3.724 4.183-3.724 7.069 0 2.12.701 3.843 2.103 5.169 1.402 1.325 3.14 2.356 5.212 3.092 2.079.737 4.892 1.517 8.459 2.342 4.612 1.119 8.316 2.238 11.126 3.357 2.8 1.12 5.22 2.828 7.23 5.125 2.01 2.298 3.03 5.39 3.03 9.278 0 3.24-.88 6.2-2.64 8.88-1.75 2.68-4.4 4.801-7.97 6.362zm46.92 1.634v-54.163h21.03v-7.688h-50.74v7.688h21.04v54.163zm37.53-15.462-6.74 15.462h-9.02l27.78-61.851h8.67l27.86 61.851h-9.2l-6.75-15.462zm3.07-7.069 13.24-30.307 13.22 30.307zm82.06 3.711h-15.16v18.82h-8.76v-61.851h23.92c7.95 0 14.19 1.915 18.75 5.743 4.56 3.83 6.84 9.102 6.84 15.817 0 4.771-1.17 8.836-3.51 12.194-2.33 3.357-5.67 5.802-9.99 7.333l14.55 20.764h-9.56l-13.22-18.996c-1.64.117-2.92.176-3.86.176zm-.26-7.511h-14.9v-27.832h14.9c5.55 0 9.78 1.192 12.7 3.578s4.39 5.817 4.39 10.294c0 4.476-1.47 7.923-4.39 10.337-2.92 2.416-7.15 3.623-12.7 3.623zm79.46 1.326v25.005h-8.76v-61.851h43.28v7.688h-34.52v21.559h30.75v7.599zm75.83 25.713c8.18 0 14.55-2.342 19.1-7.025 4.56-4.683 6.84-11.472 6.84-20.367v-35.167h-8.5v34.814c0 6.715-1.49 11.707-4.47 14.977-2.98 3.269-7.27 4.903-12.88 4.903-11.51 0-17.26-6.627-17.26-19.88v-34.814h-8.77v35.167c0 8.836 2.28 15.61 6.84 20.322 4.55 4.713 10.92 7.07 19.1 7.07zm56.2-46.831v46.123h-8.76v-61.851h7.19l36.8 46.124v-46.124h8.76v61.851h-7.18zm91.78 46.123c6.49 0 12.25-1.295 17.27-3.887s8.92-6.23 11.7-10.912c2.77-4.684 4.16-10.058 4.16-16.126 0-6.067-1.39-11.442-4.16-16.125-2.78-4.684-6.68-8.321-11.7-10.913s-10.78-3.888-17.27-3.888h-25.84v61.851zm-17.08-7.687h16.56c4.96 0 9.33-.972 13.1-2.915 3.77-1.945 6.67-4.669 8.72-8.174 2.04-3.505 3.07-7.554 3.07-12.149s-1.03-8.644-3.07-12.15c-2.05-3.504-4.95-6.229-8.72-8.173s-8.14-2.915-13.1-2.915h-16.56z" fill="#e74141" fill-rule="evenodd"/></g></svg>