<svg xmlns="http://www.w3.org/2000/svg" fill="none" viewBox="0 0 375 75"><path fill="#1E2A5A" d="M58.962 35.499c-.03-11.177-5.656-21.546-14.88-27.433l2.92-3.487-1.39-.772c-9.375-5.194-20.68-5.066-29.942.338C6.41 9.55.492 19.474 0 30.425v17.329L54.22 65.87v4.628H6.964V57.173H4.426V70.5H0v2.614h56.758v-9.142l-6.582-2.2v-3.923c5.649-5.983 8.802-14.004 8.786-22.35Zm47.816-20.023c3.81 0 7.605.466 11.302 1.39l-.873 6.879a60.76 60.76 0 0 0-10.178-1.072c-5.432 0-7.181 1.893-7.181 6.375v16.16c0 4.482 1.749 6.376 7.181 6.376 3.417-.07 6.822-.43 10.178-1.073l.873 6.88a46.586 46.586 0 0 1-11.302 1.389c-10.365 0-14.797-4.482-14.797-12.183V27.66c0-7.702 4.432-12.184 14.797-12.184Zm30.347 11.3c10.428 0 13.237 5.807 13.237 12.119v7.765c0 6.312-2.809 12.119-13.237 12.119-10.427 0-13.236-5.808-13.236-12.119v-7.765c0-6.312 2.809-12.12 13.236-12.12Zm84.63-11.3c3.627.024 7.236.512 10.738 1.453l-.435 3.155a49.437 49.437 0 0 0-10.178-1.262c-8.241 0-9.366 2.02-9.366 7.26 0 6.816.188 7.132 8.929 9.342 10.926 2.777 11.552 4.356 11.552 12.309.001 6.88-2.311 11.047-12.863 11.047-4 .01-7.972-.673-11.738-2.02l.687-3.03a38.805 38.805 0 0 0 11.176 1.705c7.118 0 9.054-2.147 9.054-7.513 0-6.502-.064-7.195-9.305-9.342-10.051-2.337-11.177-4.166-11.177-12.624 0-6.882 2.5-10.48 12.926-10.48Zm63.069 11.299c7.867 0 10.989 3.157 10.989 8.901v22.472h-3.122l-.249-2.4a19.046 19.046 0 0 1-10.303 3.032c-5.369 0-7.867-3.094-7.867-8.585 0-6.502 2.935-8.522 8.928-8.522h8.993v-5.997c0-4.229-2.186-5.618-7.182-5.618a46.62 46.62 0 0 0-8.989 1.01l-.564-3.094a38.497 38.497 0 0 1 9.366-1.2Zm50.265 0c8.555 0 11.052 4.861 11.052 11.174v5.933h-18.792v3.851c0 5.492 1.872 7.827 7.929 7.827a38.076 38.076 0 0 0 9.615-1.452l.625 2.968a33.308 33.308 0 0 1-10.49 1.705c-8.555 0-11.302-4.483-11.302-11.174V37.95c0-6.313 2.811-11.174 11.363-11.174Zm29.226.001a33.887 33.887 0 0 1 8.617 1.074l-.377 3.092a47.788 47.788 0 0 0-8.491-.884c-5.306 0-6.056 1.39-6.056 4.734 0 4.23.249 4.672 5.869 6.124 8.929 2.272 9.428 3.724 9.428 9.469 0 5.555-1.997 8.395-10.114 8.395a25.672 25.672 0 0 1-8.93-1.579l.625-2.966a29.586 29.586 0 0 0 8.054 1.263c5.619 0 6.745-1.074 6.745-4.987 0-4.419-.126-4.861-7.056-6.503-7.619-1.83-8.243-3.723-8.243-9.342 0-5.113 2.436-7.89 9.929-7.89Zm-171.492 0c5.059 0 6.869 3.597 6.869 9.09v22.282h-7.619V36.686c0-1.641-.686-2.462-2.434-2.462-1.874 0-5.182 1.136-7.929 2.588v21.336h-7.619v-30.74h5.807l.75 2.588a30.169 30.169 0 0 1 12.175-3.22Zm53.784-12.435v15.78c3.248-1.578 8.556-3.345 12.177-3.345 4.745 0 6.43 2.714 6.43 6.943v24.429h-3.62V33.277c0-2.272-1.187-3.093-3.31-3.093-2.498 0-7.867 1.516-11.677 3.535v24.429h-3.62V14.846l3.62-.505Zm71.999 12.435.436 3.598a67.567 67.567 0 0 0-9.616 5.681v22.093h-3.62v-30.74h3.246l.188 4.67c3.245-2.146 6.493-4.228 9.366-5.302Zm-153.257.63v30.742h-7.617V27.407h7.617Zm126.844 17.55h-8.868c-4.182 0-5.432 1.261-5.432 5.3 0 3.6.749 5.242 4.995 5.242a17.011 17.011 0 0 0 9.305-3.158v-7.384ZM137.125 33.34c-4.058 0-5.62 1.83-5.62 5.303v8.269c0 3.471 1.562 5.302 5.62 5.302 4.06 0 5.62-1.831 5.62-5.302v-8.27c0-3.472-1.56-5.302-5.62-5.302Zm197.964-3.41c-5.682 0-7.741 2.716-7.741 7.891V40.6h15.236v-2.778c0-5.175-1.811-7.89-7.495-7.89Zm-169.74-15.78v8.9h-7.617v-8.9h7.617ZM47.639 60.924 2.537 45.854l-.001-15.366C2.994 20.736 8.14 11.86 16.258 6.82 24.377 1.78 34.4 1.237 42.987 5.374L29.736 21.198c-4.659-1.175-9.518.906-11.994 5.137-2.475 4.232-1.991 9.629 1.194 13.322 3.186 3.693 8.333 4.823 12.703 2.79l16 15.466v3.01ZM30.803 32.158c0 1.522-.89 2.894-2.256 3.476a3.576 3.576 0 0 1-3.981-.815 3.846 3.846 0 0 1-.792-4.102c.565-1.406 1.898-2.322 3.375-2.322 2.017.002 3.652 1.685 3.654 3.763ZM48.86 55.509 33.893 41.04c2.932-2.351 4.505-6.075 4.175-9.887-.329-3.812-2.514-7.192-5.803-8.973l10.138-12.107C51.077 15.435 56.395 25.08 56.424 35.5c.021 7.414-2.68 14.562-7.564 20.01Z"/></svg>