<svg xmlns="http://www.w3.org/2000/svg" viewBox="0 0 1268 252"><path d="M77.5 2c-14.1 3.7-25.8 9.4-38.2 18.7C20.9 34.5 6.7 57.1 2 80.2.4 87.6.2 94.4.1 127.9c0 36.2.1 39.6 2 46.8 3 11.5 7.4 21.4 14 31.4 13 19.7 31.6 34 54.9 42.1 9.3 3.2 9.9 3.2 30 3.6 22.5.4 26.1-.1 41.2-5.9 8.8-3.4 22.4-11.7 30.4-18.6 12.5-10.6 24.5-29.1 29.7-45.8 4.1-13.2 4.6-20.4 4.4-61.5l-.3-38.5-2.8-8.5c-3.6-10.7-9.3-22.4-15-30.3-5.2-7.3-19-20.9-26-25.6-8.3-5.7-22-12-31.8-14.6C122.4.3 119.7 0 103 .1 88.3.1 83.1.5 77.5 2zm40.8 15.5c20.1 3.5 34.5 11.1 48.3 25.7 10.9 11.5 18.9 26.9 21.9 41.8l.6 3.5-2.7-3.5c-5-6.4-18.8-19.5-24.5-23.2-12.9-8.5-28.6-14.8-42-16.9-10.5-1.6-27.8-.6-35.6 2.1-17.4 6-31.9 21.3-37.5 39.5-2.9 9.2-2.9 23.9-.1 33.7 5.5 18.7 22.5 35.3 41.3 40.3 7.3 1.9 21.7 1.9 29.4-.1 7.5-1.9 18-7.3 23.7-12.2l4.2-3.6-.6 6.9c-1.4 16.9-10.8 30-25.3 35.4-18.8 7.1-49 .8-69.1-14.4-24.6-18.4-38.2-52.1-33.3-82.4.6-3.5 2.4-10.4 4-15.5 12.7-39.4 55.3-64.4 97.3-57.1zm0 46c29.5 5.1 51.9 22.3 64.4 49.2 11.8 25.6 10.3 56.1-3.9 80.4-5.2 8.9-20.8 24.9-29 29.7-15 8.9-29.4 12.7-47.3 12.6-18.4 0-32.7-4.1-47-13.4-19.4-12.7-32.2-32.1-37.9-57.5-.6-2.7-.4-2.6 2.3 1.5 4.9 7.2 16.9 18.8 25.7 24.6 9.8 6.5 18.4 10.5 30.1 14s31.6 4.5 41.3 2c23.3-5.9 40.6-24.5 44.6-48.1 5-28.6-12-56.6-39.8-65.9-9.2-3.1-22.4-3.5-32.2-1-7.4 1.9-18 7.3-23.5 12.1l-4.1 3.5v-4.4c0-14.9 8.8-29.6 21.4-35.8 10.1-5 20.4-6 34.9-3.5zm-2.4 45.4c3.4 1 8.3 3.3 11.1 5.1 4.9 3.1 11 9.7 11 11.9 0 1.9-6.4 8.4-11.6 11.7-2.8 1.8-8 4.3-11.5 5.4-15.5 5.3-34.4-.5-44.4-13.6l-2.7-3.6 5.8-5.6c12.1-11.7 27.7-15.9 42.3-11.3zm186.6-33.1c-8.1 3-11.6 5.1-17.2 10.5-6.1 5.8-11.3 13.8-13.8 21.5-1.3 4-1.6 7.8-1.3 16 .3 9.9.6 11.2 4 18.5 14.9 31.1 54.5 38.5 78.1 14.5 3.4-3.5 7.2-8.2 8.5-10.6l2.3-4.2h-21.2l-4.7 3.9c-6.6 5.6-11.2 7.3-19.5 7.2s-13.6-2.3-19.7-8.3c-10.8-10.4-12.7-27.5-4.5-40.4 9.8-15.2 30.4-18 44.2-5.9l5.1 4.5h10.1c5.6 0 10.1-.4 10.1-.8 0-2.1-8.1-13.1-12.1-16.6-2.4-2.1-7.8-5.5-11.9-7.5-7.2-3.4-8-3.6-19.5-3.9-9.7-.2-13 .1-17 1.6zm573.4-.3c-10.5 3.9-17.6 8.9-23.7 16.8-21.1 27.3-6.9 68.3 26.9 77.2 19.4 5.2 40.9-3.4 52.9-21.1 1.6-2.5 3-4.9 3-5.5 0-.5-4.7-.9-10.8-.9-10.8 0-10.8 0-13.8 3.1-7.8 8.3-21.4 10.6-31.9 5.4-19.5-9.5-23.6-37.4-7.6-51.8 6.8-6.1 9.6-7.1 19.6-7.2 10.2 0 14.4 1.6 20.4 7.9l3.5 3.6h10.8c5.9 0 10.8-.2 10.8-.6 0-1.6-8.4-12.5-12.7-16.5-5.5-5.2-9-7.2-17.1-10-6.6-2.3-24.6-2.5-30.3-.4zM525 86.5V98h-9v16h9v55h18v-55h11V98h-11V75h-18zm31-1.5v10h18V75h-18zm549 0v10h18V75h-18zm31 1.5V98h-9v16h9v55h17v-55h12V98h-12V75h-17zm114 35.5v47h18V75h-18z"/><path d="M390.5 97.4c-9.2 2.9-15.9 8.1-21.2 16.3-7.2 11.3-7.8 23.1-1.7 35.3 4.4 8.7 10.2 14.5 18.4 18.4 5.9 2.8 7.4 3.1 16 3.1s10.1-.3 16.1-3.1c9.3-4.4 14.2-9.3 18.7-18.2 3.4-7 3.7-8.3 3.7-16.1 0-7.2-.4-9.5-2.7-14.3-1.5-3.2-3.9-7.3-5.3-9.2-3.5-4.6-11.9-10.2-18-12.1-6-1.8-18.5-1.9-24-.1zm21.3 17.5c4.5 2.3 6.3 4.2 9.1 9.8 4.2 8.3 1.8 17.9-5.9 24.6-13.1 11.2-33 1.4-33-16.2 0-15.6 15.8-25.3 29.8-18.2zm57.9-16.5c-3.5 1.7-4.7 2-4.7 1 0-1.1-2-1.4-8.5-1.4H448v71h18v-20.6c0-23.7.8-28.1 5.6-32.4 8.5-7.4 19.9-3.6 22.4 7.6.5 2.1 1 13.2 1 24.6V169h18.2l-.4-25.3c-.5-29.5-1.1-32.2-9-39.9-5.8-5.7-11.9-7.8-22.3-7.8-5.5 0-8.2.5-11.8 2.4zm139.3-1c-1.9.7-4.3 1.7-5.2 2.1-1.1.4-1.8.3-1.8-.4s-3-1.1-8.5-1.1H585v71h17.9l.3-23.3c.3-26.5.8-28 8.6-31.8 7.1-3.5 14.3-1.3 17.9 5.4 1.5 2.7 1.8 6.7 2.1 26.4l.4 23.3h18l-.4-25.3c-.6-27.5-1.2-31.1-6.7-37.8-1.6-1.9-5.3-4.8-8.2-6.4-4.5-2.4-6.8-3-13.9-3.2-5.6-.2-9.7.1-12 1.1zm148.5 0c-6.7 2.1-9.8 4.1-15.7 10.3-4.7 5-6 7.2-7.8 13.2-5.9 19.2 2.1 38.1 19.5 46.7 5.3 2.6 7.1 2.9 15 2.9 8.2 0 9.7-.3 15.7-3.3 7.6-3.7 15-11.2 17.9-18 1.1-2.4 1.9-4.8 1.9-5.3s-4-.9-8.9-.9c-8.8 0-9 .1-10.6 2.8-3.1 5.2-8.1 7.7-15.5 7.7-5.5 0-7.3-.4-10.6-2.6-2.1-1.5-4.7-4.1-5.7-5.8l-1.8-3.1h54.3l-.4-9.9c-.3-8.9-.7-10.6-3.8-16.7-6.3-12.3-18.2-19.5-32.3-19.3-4 0-9 .6-11.2 1.3zm15.8 15.7c4.3 1.2 10.1 5.9 12.3 10l1.5 2.9h-37.2l1.5-2.8c2.1-4 6.9-8.2 11.2-9.7 4.8-1.7 5.9-1.8 10.7-.4zm188.5-15.7c-9.5 2.7-18 10.4-22.6 20.4-2.2 5-2.6 7-2.5 15.7 0 7.9.5 11 2.2 14.8 6 13.9 19.8 22.7 35.3 22.7 6.1 0 14.7-2.7 17.9-5.6 1.8-1.6 1.9-1.6 1.9.9v2.7h19V98h-9.5c-8.6 0-9.5.2-9.5 1.8 0 1.7-.4 1.7-5.2-.7-4.3-2.1-6.9-2.6-13.8-2.8-4.8-.1-10.6.4-13.2 1.1zm22 17.5c6.7 3.4 10.2 9.5 10.2 17.7 0 7.1-1.9 12.1-6.1 15.9-8.5 7.6-20.2 7.3-27.6-.8-5.6-6.1-7.1-12.5-4.8-20.4 1.9-6.6 7.3-12.6 12.8-14.2 4.3-1.3 10.8-.6 15.5 1.8zm64.8-16.9c-2.6 1-5.7 2.7-6.7 3.6-1.8 1.6-1.9 1.6-1.9-.9V98h-17v93h18v-13.1c0-7.2.3-12.9.8-12.7 7.9 4.1 11.5 5.2 18.2 5.6 21.2 1.2 38-15.3 38-37.3 0-16.7-9.6-30.8-24.4-35.8-6.8-2.3-18.7-2.2-25 .3zm16.7 15.1c8.1 2.2 14.7 11.5 14.7 20.7 0 6.1-3.3 12.6-8.3 16.6-3.5 2.8-4.5 3.1-11.2 3.1s-7.6-.3-11.2-3.1c-5.8-4.7-8.3-9.8-8.3-16.9 0-8.7 3.7-15 10.9-18.7 5.8-3.1 7.7-3.3 13.4-1.7zm124.2-15.7c-6.9 2.2-10 4.3-15.7 10.4-6.9 7.5-9.3 14.2-9.3 26.2 0 11.1 2.1 17.1 8.6 24.3 11.8 13.3 33.1 16.8 46.1 7.5l2.8-1.9v2.5c0 2.6 0 2.6 9 2.6h9V98h-9c-8.1 0-9 .2-9 1.8 0 1.7-.4 1.7-5.2-.7-4.3-2.1-6.9-2.6-14.3-2.8-5.4-.2-10.6.3-13 1.1zm23.1 18.1c6.5 3.8 8.8 8.4 8.9 17.5 0 6.2-.4 8.2-2.4 11.3-4.6 7.5-14 11.1-22.7 8.8-5.8-1.5-9.3-4.6-12-10.5-4-8.5-2.7-16.8 3.5-23.7 6.5-7.2 15.9-8.5 24.7-3.4zm-656.6 18V169h18V98h-18zm104-13.4c0 33.1 2.4 40.5 15.4 47.3 5.4 2.8 6.8 3.1 15 3.1 7.5 0 9.8-.4 13.4-2.3 3.4-1.8 4.2-2 4.2-.7 0 1.2 1.6 1.5 8.5 1.5h8.5V98h-17.8l-.4 22.2c-.3 21-.4 22.6-2.6 26.6-2.9 5.4-7.5 7.6-14.6 6.9-5.7-.5-8.8-3.3-10.5-9.5-.6-2-1.1-13.3-1.1-25V98h-18zm445 13.4V169h18V98h-18z"/></svg>