<svg xmlns="http://www.w3.org/2000/svg" fill="none" viewBox="0 0 213 20"><clipPath id="a"><path d="M0 .182h213V19.55H0z"/></clipPath><g fill="#282828" clip-path="url(#a)"><path d="M2.122 11.371v7.485H.425V.839h10.763v1.543H2.122z"/><path d="M2.315 19.049H.232V.646h11.15v1.929H2.314zm-1.698-.386H1.93V2.189h9.028V1.032H.617zm12.461.193h-1.736l7.6-18.441h.116l7.6 18.441h-1.774l-1.235-3.125h-9.298zm5.942-14.66-4.051 9.992h8.063z"/><path d="M26.967 19.047h-2.199l-1.234-3.125h-9.028l-1.273 3.125h-2.16L18.826.22h.386zm-1.929-.385h1.35L19.02.76l-7.369 17.9h1.312l1.273-3.124h9.568zm-1.736-4.283H14.7l4.32-10.686zm-8.024-.385h7.484l-3.704-9.26z"/><path d="M12.886 18.856H11.15L18.712.415h.115l7.6 18.441h-1.736l-1.234-3.125h-9.298zm5.941-14.66-4.05 9.992h8.063z"/><path d="M26.774 19.047h-2.199l-1.234-3.125h-9.066L13 19.047h-2.16L18.595.22h.386zm-1.967-.385h1.35L18.788.76l-7.33 17.9h1.273l1.274-3.124h9.567zm-1.698-4.283h-8.642l4.36-10.686zm-8.063-.385h7.485l-3.704-9.26zM29.63.839h5.864c3.395 0 5.054 1.967 5.054 4.437 0 1.736-.849 2.932-2.315 3.588 2.276.617 3.742 2.314 3.742 4.745 0 2.932-1.89 5.247-5.787 5.247H29.63zm6.057 7.446c2.276 0 3.163-1.235 3.163-3.01 0-1.658-.964-2.932-3.433-2.932h-4.09v5.942zm.347 9.027c3.01 0 4.205-1.62 4.205-3.742 0-2.199-1.35-3.82-4.282-3.82h-4.63v7.563z"/><path d="M36.188 19.049h-6.751V.646h6.057c3.858 0 5.247 2.392 5.247 4.63 0 1.581-.695 2.816-1.968 3.549 2.16.733 3.395 2.508 3.395 4.784 0 2.623-1.543 5.44-5.98 5.44zm-6.366-.386h6.366c3.472 0 5.594-1.93 5.594-5.054 0-2.238-1.35-3.935-3.588-4.553l-.54-.154.54-.231c1.428-.656 2.2-1.852 2.2-3.434 0-2.623-1.852-4.244-4.862-4.244h-5.71zm6.212-1.158h-4.9V9.558h4.823c2.777 0 4.475 1.505 4.475 4.012s-1.582 3.935-4.398 3.935zm-4.514-.385h4.475c2.585 0 4.013-1.273 4.013-3.55 0-2.314-1.467-3.626-4.051-3.626H31.52zm4.167-8.642h-4.553V2.189h4.244c2.315 0 3.627 1.119 3.627 3.125.038 2.045-1.158 3.164-3.318 3.164zm-4.167-.386h4.167c1.967 0 2.97-.926 2.97-2.778 0-1.736-1.157-2.7-3.24-2.7h-3.859v5.478z"/><path d="M29.63.839h5.864c3.395 0 5.054 1.967 5.054 4.437 0 1.736-.849 2.932-2.315 3.588 2.276.617 3.742 2.314 3.742 4.745 0 2.932-1.89 5.247-5.787 5.247H29.63zm6.057 7.446c2.276 0 3.163-1.235 3.163-3.01 0-1.658-.964-2.932-3.433-2.932h-4.09v5.942zm.347 9.027c3.01 0 4.205-1.62 4.205-3.742 0-2.199-1.35-3.82-4.282-3.82h-4.63v7.563z"/><path d="M36.188 19.049h-6.751V.646h6.057c3.858 0 5.247 2.392 5.247 4.63 0 1.581-.695 2.816-1.968 3.549 2.16.733 3.395 2.508 3.395 4.784 0 2.623-1.543 5.44-5.98 5.44zm-6.366-.386h6.366c3.472 0 5.594-1.93 5.594-5.054 0-2.238-1.35-3.935-3.588-4.553l-.54-.154.54-.231c1.428-.656 2.2-1.852 2.2-3.434 0-2.623-1.852-4.244-4.862-4.244h-5.71zm6.212-1.158h-4.9V9.558h4.823c2.777 0 4.475 1.505 4.475 4.012s-1.582 3.935-4.398 3.935zm-4.514-.385h4.475c2.585 0 4.013-1.273 4.013-3.55 0-2.314-1.467-3.626-4.051-3.626H31.52zm4.167-8.642h-4.553V2.189h4.244c2.315 0 3.627 1.119 3.627 3.125.038 2.045-1.158 3.164-3.318 3.164zm-4.167-.386h4.167c1.967 0 2.97-.926 2.97-2.778 0-1.736-1.157-2.7-3.24-2.7h-3.859v5.478zm25.578 10.764h-2.083l-3.588-4.591a9.025 9.025 0 0 1-1.466.115h-2.199v4.514h-1.736V.84h3.935c4.9 0 7.446 2.893 7.446 6.79 0 2.893-1.427 5.247-4.205 6.211zm-7.291-6.019c4.09 0 5.748-2.199 5.748-5.208 0-3.01-1.659-5.247-5.748-5.247h-2.084v10.455z"/><path d="M57.484 19.049H54.9l-3.588-4.591c-.424.077-.848.077-1.388.077h-2.007v4.514h-2.122V.646h4.129c4.706 0 7.638 2.662 7.638 6.983 0 3.01-1.504 5.285-4.09 6.327zm-2.392-.386h1.582l-3.858-4.9.27-.077c2.585-.926 4.09-3.125 4.09-6.057 0-4.05-2.778-6.597-7.254-6.597H46.18v17.63h1.312V14.15h2.392c.579 0 1.042-.039 1.466-.116h.116zm-5.285-5.633H47.53V2.19h2.277c3.82 0 5.941 1.928 5.941 5.439.039 3.472-2.083 5.401-5.941 5.401zm-1.89-.386h1.89c4.59 0 5.555-2.739 5.555-5.015 0-3.24-1.967-5.054-5.555-5.054h-1.89z"/><path d="M57.098 18.856h-2.083l-3.588-4.591a9.025 9.025 0 0 1-1.466.115h-2.199v4.514h-1.736V.84h3.935c4.9 0 7.446 2.893 7.446 6.79 0 2.893-1.427 5.247-4.205 6.211zm-7.291-6.019c4.09 0 5.748-2.199 5.748-5.208 0-3.01-1.659-5.247-5.748-5.247h-2.084v10.455z"/><path d="M57.484 19.049H54.9l-3.588-4.591c-.424.077-.848.077-1.388.077h-2.007v4.514h-2.122V.646h4.129c4.706 0 7.638 2.662 7.638 6.983 0 3.01-1.504 5.285-4.09 6.327zm-2.392-.386h1.582l-3.858-4.9.27-.077c2.585-.926 4.09-3.125 4.09-6.057 0-4.05-2.778-6.597-7.254-6.597H46.18v17.63h1.312V14.15h2.392c.579 0 1.042-.039 1.466-.116h.116zm-5.285-5.633H47.53V2.19h2.277c3.82 0 5.941 1.928 5.941 5.439.039 3.472-2.083 5.401-5.941 5.401zm-1.89-.386h1.89c4.59 0 5.555-2.739 5.555-5.015 0-3.24-1.967-5.054-5.555-5.054h-1.89zM63.233.839h-1.736v18.017h1.736z"/><path d="M63.464 19.049h-2.122V.646h2.122zm-1.774-.386h1.35V1.032h-1.35z"/><path d="M63.233.839h-1.736v18.017h1.736z"/><path d="M63.464 19.049h-2.122V.646h2.122zm-1.774-.386h1.35V1.032h-1.35zm5.246-8.835c0-5.363 4.013-9.221 9.105-9.221 3.048 0 5.44 1.234 7.06 3.356l-1.311.965c-1.35-1.736-3.241-2.74-5.787-2.74-4.167 0-7.292 3.28-7.292 7.64 0 4.436 3.163 7.638 7.407 7.638 2.585 0 4.707-1.08 6.135-3.009l1.35.965c-1.775 2.314-4.283 3.588-7.523 3.588-5.131.038-9.144-3.82-9.144-9.182z"/><path d="M76.118 19.242c-2.585 0-4.977-.965-6.713-2.7s-2.662-4.129-2.662-6.714c0-5.362 4.012-9.413 9.298-9.413 3.01 0 5.517 1.196 7.214 3.433l.116.155-1.659 1.196-.116-.155c-1.388-1.774-3.279-2.662-5.632-2.662-4.051 0-7.099 3.203-7.099 7.446 0 4.321 3.048 7.446 7.215 7.446 2.469 0 4.513-1.003 5.98-2.932l.115-.154 1.66 1.196-.117.154c-1.774 2.47-4.36 3.704-7.6 3.704zM76.041.8c-5.054 0-8.912 3.896-8.912 9.027 0 2.508.887 4.784 2.546 6.443 1.66 1.66 3.935 2.585 6.443 2.585 3.048 0 5.478-1.119 7.253-3.356l-1.042-.733c-1.504 1.929-3.626 2.932-6.172 2.932-4.398 0-7.6-3.318-7.6-7.832 0-4.475 3.202-7.832 7.484-7.832 2.43 0 4.36.887 5.825 2.7l1.004-.732C81.21 1.88 78.857.8 76.04.8z"/><path d="M66.936 9.828c0-5.363 4.013-9.221 9.105-9.221 3.048 0 5.44 1.234 7.06 3.356l-1.311.965c-1.35-1.736-3.241-2.74-5.787-2.74-4.167 0-7.292 3.28-7.292 7.64 0 4.436 3.163 7.638 7.407 7.638 2.585 0 4.707-1.08 6.135-3.009l1.35.965c-1.775 2.314-4.283 3.588-7.523 3.588-5.131.038-9.144-3.82-9.144-9.182z"/><path d="M76.118 19.242c-2.585 0-4.977-.965-6.713-2.7s-2.662-4.129-2.662-6.714c0-5.362 4.012-9.413 9.298-9.413 3.01 0 5.517 1.196 7.214 3.433l.116.155-1.659 1.196-.116-.155c-1.388-1.774-3.279-2.662-5.632-2.662-4.051 0-7.099 3.203-7.099 7.446 0 4.321 3.048 7.446 7.215 7.446 2.469 0 4.513-1.003 5.98-2.932l.115-.154 1.66 1.196-.117.154c-1.774 2.47-4.36 3.704-7.6 3.704zM76.041.8c-5.054 0-8.912 3.896-8.912 9.027 0 2.508.887 4.784 2.546 6.443 1.66 1.66 3.935 2.585 6.443 2.585 3.048 0 5.478-1.119 7.253-3.356l-1.042-.733c-1.504 1.929-3.626 2.932-6.172 2.932-4.398 0-7.6-3.318-7.6-7.832 0-4.475 3.202-7.832 7.484-7.832 2.43 0 4.36.887 5.825 2.7l1.004-.732C81.21 1.88 78.857.8 76.04.8zM11.15.839H9.568v3.935h1.582z"/><path d="M11.381 4.967H9.375V.646h2.006zm-1.62-.386h1.196v-3.55H9.76zM2.045 9.828H7.06v1.505H2.045"/><path d="M7.253 11.563H2.045v-.424h4.822v-1.12H2.045v-.385h5.208z"/><path d="M11.15.644H0v18.403h2.122v-7.485h4.9V9.633h-4.9v-7.06h7.06v2.392h1.968zM123.224 2.42v16.666h-.771V.182h.116l12.924 17.13V.645h.772V19.55h-.116zm22.3-1.004h-5.903V.644h12.693v.772h-5.903v17.67h-.849V1.415zm9.992 11.574V.644h.849v12.269c0 3.626 2.16 5.632 5.208 5.632s5.247-1.967 5.247-5.632V.644h.849V13.03c0 4.089-2.662 6.288-6.135 6.288-3.472 0-6.018-2.2-6.018-6.327zm27.662 6.095h-1.081l-4.128-4.9c-.501.04-1.041.117-1.581.117h-2.585v4.784h-.849V.643h3.472c4.938 0 7.369 3.048 7.369 6.829 0 3.048-1.62 5.633-4.861 6.52zm-6.906-5.555c4.707 0 6.636-2.7 6.636-6.057s-1.968-6.057-6.636-6.057h-2.508V13.53zm12.693-.887v5.67h10.146v.773h-10.995V.643h10.648v.772h-9.761V11.91zm0-1.852h7.098v.771h-7.098m-80.787 1.081v5.67h10.147v.773h-10.996V.643h10.649v.772h-9.761V11.91zm0-1.852h7.099v.771h-7.099m94.02 3.744c1.041 2.006 2.97 3.24 5.324 3.24 2.97 0 4.629-1.542 4.629-3.818 0-2.238-1.196-3.434-3.896-4.746l-1.698-.81c-2.585-1.273-4.012-2.276-4.012-4.63 0-2.469 1.967-4.05 4.437-4.05 2.237 0 3.703.81 4.822 2.584l-.656.386c-.964-1.505-2.237-2.238-4.166-2.238-2.122 0-3.588 1.428-3.588 3.318 0 2.007 1.118 2.74 3.549 3.936l1.659.81c3.086 1.504 4.398 2.97 4.398 5.44 0 2.739-2.045 4.63-5.478 4.63-2.894 0-4.939-1.467-6.057-3.589zM103.124.644h-4.128v.772h3.434L96.064 17.58 89.66 1.416h3.434V.644h-4.63l7.484 18.904h.116L103.587.645z"/></g></svg>