<svg xmlns="http://www.w3.org/2000/svg" fill="none" viewBox="0 0 577 107"><path fill="#1E0124" d="M199.96 38.534v57.658a.3.3 0 0 1-.3.3h-12.287a.3.3 0 0 1-.3-.3V38.534c0-.072.029-.14.079-.191a.272.272 0 0 1 .191-.079h12.347a.27.27 0 0 1 .27.27Zm90.593-20.828a.24.24 0 0 0-.239.24v10.339a.268.268 0 0 0 .269.27h24.634v67.637a.3.3 0 0 0 .3.3h12.796a.299.299 0 0 0 .3-.3V28.554h22.656a.33.33 0 0 0 .33-.33V17.947a.24.24 0 0 0-.24-.24h-60.806Zm7.492 78.456a.328.328 0 0 1-.329.33h-11.987a.331.331 0 0 1-.33-.33V62.568a33.853 33.853 0 0 0-.39-4.885c-.839-5.783-2.997-9.68-10.728-9.68h-.33a14.687 14.687 0 0 0-6.683 1.889 17.567 17.567 0 0 0-6.563 5.993c.241 1.869.361 3.75.36 5.634v35.393a.3.3 0 0 1-.3.3h-11.807a.33.33 0 0 1-.33-.33V66.015c0-5.485.33-11.358-2.397-14.625a10.583 10.583 0 0 0-8.991-3.326 16.872 16.872 0 0 0-6.623 1.678 12.198 12.198 0 0 0-3.776 2.487 10.25 10.25 0 0 0-2.757 4.465v39.468a.331.331 0 0 1-.33.33h-11.987a.33.33 0 0 1-.329-.33V38.923a.3.3 0 0 1 .299-.3h5.125a4.703 4.703 0 0 1 4.495 3.267c.24.84.539 1.559.659 1.918a27.152 27.152 0 0 1 18.311-6.653 18.248 18.248 0 0 1 14.115 5.245 23.19 23.19 0 0 1 2.307 3.296 26.433 26.433 0 0 1 20.019-8.301c6.353 0 21.128 2.158 21.128 22.206l.149 36.561Zm165.964.48h-13.156a.387.387 0 0 1-.329-.15c-2.757-3.836-8.631-13.006-9.261-13.695l-.269-.45c-2.068-2.727-6.953-8.99-13.486-10.399l-4.945 5.125v19.18a.24.24 0 0 1-.148.22.237.237 0 0 1-.091.02h-12.227a.329.329 0 0 1-.3-.33V16.686a.299.299 0 0 1 .3-.3h12.466a.24.24 0 0 1 .24.24v44.952l23.975-24.574h13.905c.389 0 .569 0 .719.27.15.27 0 .51 0 .78l-25.233 25.622a40.137 40.137 0 0 1 14.055 12.467l.27.36c.839 1.078 10.249 14.504 13.815 19.509a.35.35 0 0 1 .179.198.35.35 0 0 1-.479.431ZM201.218 22.77a7.729 7.729 0 0 1-9.135 7.753 7.737 7.737 0 0 1-6.163-6.02 7.732 7.732 0 0 1 7.537-9.315 7.675 7.675 0 0 1 7.143 4.653c.397.927.607 1.922.618 2.93Zm171.598 13.037c-17.651 0-28.589 11.717-28.589 30.597 0 18.88 10.938 30.597 28.589 30.597 17.651 0 28.77-11.747 28.77-30.627s-11.119-30.567-28.77-30.567Zm11.418 46.42a15.616 15.616 0 0 1-11.418 4.106c-13.515 0-16.302-11.208-16.302-20.558 0-13.036 5.304-19.39 16.302-19.39s16.243 6.683 16.243 19.93c.06 7.222-1.588 12.586-4.825 15.882v.03Z"/><path fill="#1E0124" d="M517.563 78.421c-.27-.33-.84 0-1.109 0l-10.579 1.589a.929.929 0 0 0-.839.57 13.66 13.66 0 0 1-10.939 6.562 15.79 15.79 0 0 1-15.133-6.563 16.475 16.475 0 0 1-3.357-8.301v-.21l30.538-4.195a12.202 12.202 0 0 0 9.14-5.994 12.191 12.191 0 0 0 .15-10.998 26.375 26.375 0 0 0-14.265-13.486 28.29 28.29 0 0 0-26.971 3.746 29.547 29.547 0 0 0-11.119 23.285 41.116 41.116 0 0 0 .48 8.691c2.128 12.287 11.088 24.694 26.761 24.694 18.701 0 25.863-11.508 27.182-18.4.179-.21.389-.75.06-.99ZM478.604 52.26a16.592 16.592 0 0 1 11.628-6.143 13.184 13.184 0 0 1 11.657 3.416 15.405 15.405 0 0 1 2.997 3.896 3.441 3.441 0 0 1 0 2.997 2.997 2.997 0 0 1-2.368 1.798l-27.9 3.896a19.603 19.603 0 0 1 4.106-9.86h-.12Zm98.145 8.21v35.692a.328.328 0 0 1-.329.33h-11.988a.3.3 0 0 1-.299-.3V66.494s0-4.915-.24-9.38a11.312 11.312 0 0 0-1.001-4.332 11.315 11.315 0 0 0-2.595-3.61 10.28 10.28 0 0 0-8.122-2.067 22.474 22.474 0 0 0-14.474 8.001v41.056a.33.33 0 0 1-.33.33h-11.987a.328.328 0 0 1-.33-.33V37.844a.33.33 0 0 1 .33-.33h10.039a.329.329 0 0 1 .33.33v5.694a29.009 29.009 0 0 1 18.43-7.492c5.754-.36 22.566-.03 22.566 24.425Z"/><path fill="url(#a)" d="M138.195 43.658c-7.791 35.543-35.961 55.561-63.232 60.956a74.248 74.248 0 0 1-29.968-.24C23.028 99.639 5.137 84.834.97 63.317c-4.944-25.532 10.4-38.599 23.016-40.816 13.336-2.548 25.293 5.184 27.48 15.913 1.859 10.16-4.255 15.613-8.99 16.452a7.821 7.821 0 0 1-9.38-5.484c-.75-3.985.81-4.585 0-8.75a8.181 8.181 0 0 0-2.158-4.436 9.38 9.38 0 0 0-9.919-1.528c-2.997 1.079-9.95 5.184-8.331 17.98a18.912 18.912 0 0 0 2.667 7.703 24.365 24.365 0 0 0 4.106 4.825 27.87 27.87 0 0 0 24.693 5.993 36.411 36.411 0 0 0 8.691-2.847c12.437-5.994 19.84-18.76 19-34.403a6.293 6.293 0 0 1 .39-2.817 21.991 21.991 0 0 1 3.296-4.885A86.308 86.308 0 0 1 114.97 3.11 61.887 61.887 0 0 1 135.948.924c1.318 0 2.397.54 2.637 1.738.36 1.918.569 3.896.779 5.994a109.93 109.93 0 0 1-1.169 35.002Z"/><defs><linearGradient id="a" x1="128.096" x2="22.728" y1="-8.306" y2="96.702" gradientUnits="userSpaceOnUse"><stop stop-color="#11C4D1"/><stop offset="1" stop-color="#0062AD"/></linearGradient></defs></svg>