<svg id="图层_1" data-name="图层 1" xmlns="http://www.w3.org/2000/svg" xmlns:xlink="http://www.w3.org/1999/xlink" viewBox="0 0 204.7 133.46"><defs><style>.cls-1{fill:url(#linear-gradient);}.cls-2{fill:url(#linear-gradient-2);}.cls-3{fill:url(#linear-gradient-3);}.cls-4{fill:url(#linear-gradient-4);}.cls-5,.cls-6,.cls-7{fill:none;stroke:#000;stroke-linecap:round;}.cls-5,.cls-7{stroke-miterlimit:10;}.cls-5{stroke-width:4.23px;}.cls-6{stroke-linejoin:round;}.cls-6,.cls-7{stroke-width:3.53px;}.cls-8{fill:url(#linear-gradient-5);}</style><linearGradient id="linear-gradient" x1="104.23" y1="58.59" x2="149.43" y2="58.59" gradientUnits="userSpaceOnUse"><stop offset="0" stop-color="#ff8b33"/><stop offset="1" stop-color="#ffb333"/></linearGradient><linearGradient id="linear-gradient-2" x1="54.82" y1="72.72" x2="125.73" y2="72.72" xlink:href="#linear-gradient"/><linearGradient id="linear-gradient-3" x1="-3700.4" y1="239.45" x2="-3655.21" y2="239.45" gradientTransform="translate(-3600.38 276.17) rotate(180)" xlink:href="#linear-gradient"/><linearGradient id="linear-gradient-4" x1="-3749.81" y1="253.57" x2="-3678.91" y2="253.57" gradientTransform="translate(-3600.38 276.17) rotate(180)" xlink:href="#linear-gradient"/><linearGradient id="linear-gradient-5" x1="48.51" y1="97.47" x2="55.5" y2="97.47" gradientUnits="userSpaceOnUse"><stop offset="0" stop-color="#ff8e38"/><stop offset="1" stop-color="#ffb538"/></linearGradient></defs><title>未标题-1</title><path class="cls-1" d="M111.34,42.24c2.11.6,4.36.35,6.5.91A16.31,16.31,0,0,1,129.52,55c1.83,7.68-2.7,15.63-10,18.47-3.67,1.44-7.83.54-11.16,2.87a9.72,9.72,0,1,0,14.06,12.74,12.55,12.55,0,0,0,1.28-5.55,16.35,16.35,0,0,1,15-15.16,13.92,13.92,0,0,0,5.05-1,10,10,0,0,0,3.84-3.12A9.83,9.83,0,0,0,141.16,49c-2.2-.32-4.31-.26-6.45-1a16.26,16.26,0,0,1-5-2.78,16.51,16.51,0,0,1-5.6-9.05c-.44-1.95-.23-4-.76-5.9a9.73,9.73,0,1,0-16.11,9.64A9.65,9.65,0,0,0,111.34,42.24Z"/><path class="cls-2" d="M106.63,57.22c-.6,2.11-.35,4.36-.91,6.5A16.31,16.31,0,0,1,93.83,75.4c-7.68,1.83-15.63-2.7-18.47-10-1.44-3.67-.54-7.83-2.87-11.16A9.72,9.72,0,1,0,59.76,68.35a12.55,12.55,0,0,0,5.55,1.28,16.35,16.35,0,0,1,15.16,15,13.92,13.92,0,0,0,1,5.05,10,10,0,0,0,3.12,3.84A9.83,9.83,0,0,0,99.9,87c.32-2.2.26-4.31,1-6.45a16.26,16.26,0,0,1,2.78-5,16.51,16.51,0,0,1,9.05-5.6c1.95-.44,4-.23,5.9-.76A9.73,9.73,0,1,0,109,53.14,9.65,9.65,0,0,0,106.63,57.22Z"/><path class="cls-3" d="M92.92,53.08c-2.11-.6-4.36-.35-6.5-.91A16.31,16.31,0,0,1,74.73,40.28c-1.83-7.68,2.7-15.63,10-18.47,3.67-1.44,7.83-.54,11.16-2.87a9.8,9.8,0,0,0,4-9.61A9.75,9.75,0,0,0,81.79,6.2a12.55,12.55,0,0,0-1.28,5.55,16.35,16.35,0,0,1-15,15.16,13.92,13.92,0,0,0-5.05,1A10,10,0,0,0,56.64,31,9.83,9.83,0,0,0,63.1,46.34c2.2.32,4.31.26,6.45,1a16.26,16.26,0,0,1,5,2.78,16.51,16.51,0,0,1,5.6,9.05c.44,1.95.23,4,.76,5.9A9.73,9.73,0,1,0,97,55.44,9.65,9.65,0,0,0,92.92,53.08Z"/><path class="cls-4" d="M97.62,38.1c.6-2.11.35-4.36.91-6.5a16.31,16.31,0,0,1,11.89-11.69c7.68-1.83,15.63,2.7,18.47,10,1.44,3.67.54,7.83,2.87,11.16A9.72,9.72,0,1,0,144.49,27a12.55,12.55,0,0,0-5.55-1.28,16.35,16.35,0,0,1-15.16-15,13.92,13.92,0,0,0-1-5.05,10,10,0,0,0-3.12-3.84,9.83,9.83,0,0,0-15.34,6.46c-.32,2.2-.26,4.31-1,6.45a16.26,16.26,0,0,1-2.78,5,16.51,16.51,0,0,1-9.05,5.6c-1.95.44-4,.23-5.9.76a9.73,9.73,0,1,0,9.64,16.11A9.65,9.65,0,0,0,97.62,38.1Z"/><path class="cls-5" d="M10.32,104.93,3.94,130.85"/><path class="cls-6" d="M34.52,95.8l-5.3,24.73c.41-1.28,3.1-9.55,4.86-12.28a6.69,6.69,0,0,1,.84-1.06A5.82,5.82,0,0,1,39,105.12a2.53,2.53,0,0,1,2,.67c.62.79.16,2-.39,3.68-1.92,5.84-1.82,7.85-1.67,8.87a2.83,2.83,0,0,0,1.59,2.23c1.54.73,2.9,0,4.1-1.28A17.38,17.38,0,0,0,48,113.55c.62-1.6,1.62-4.17,3-7.59-.72,3.91-1.34,6.91-2,9.15a6,6,0,0,0,.11,4,3.61,3.61,0,0,0,.92,1.05,2.87,2.87,0,0,0,1.59.45c3,.07,4.33-2.6,7.09-7.26"/><path class="cls-6" d="M61.86,106h12c-4.66,5.07-8.21,9.26-12.73,14.23H73.87"/><path class="cls-7" d="M80.29,107.69a2.57,2.57,0,0,0-.21,2.88,3.2,3.2,0,0,0,2.46,1.37,10.72,10.72,0,0,0,8.68-2.34A26.36,26.36,0,0,0,95,105.83a2.14,2.14,0,0,1,1.15-.7.9.9,0,0,1,.83.6A5.27,5.27,0,0,1,97,108c-.41,2-1.35,6.47-2.45,12.51-.1.53.68-7,3.16-11.62a8.23,8.23,0,0,1,2-2.67,3,3,0,0,1,2.36-.84,2.91,2.91,0,0,1,1.78.84c.81.84.85,3.12.41,6.2-.48,3.36-.91,6.13-1.23,8.08"/><path class="cls-7" d="M104.46,110.61a15.51,15.51,0,0,1,2.71-3.72c.22-.18,1.85-1.64,3.55-.91,1.93.83,1.77,3.55,1.49,5.52-.34,2.43-1.26,4-1.34,6.53,0,1,.24,1.79.86,2,1.84.7,4.32-1,6.83-2.86,1.18-.86,1.51-1.07,4-2.74a17.41,17.41,0,0,0,4.55-4,2.55,2.55,0,0,0-.15-3.51c-1.23-1.1-3.53-.58-5.13.36a7.21,7.21,0,0,0-3.48,4.36c-.37,1.13-1.3,4.54.72,6.84s5.43,1.84,5.86,1.78c3.38-.46,6.26-3.31,7.34-7.22"/><circle class="cls-8" cx="52" cy="97.47" r="3.49"/><path class="cls-6" d="M202.94,110.71c-.2,3-1.16,8-5.45,10.8-5.31,3.49-11.71,1.05-12.82.6a16.59,16.59,0,0,1-3.33-1.91c-7.34-5.57-9.35-22.14-9.59-24.27l-10.6,24.37"/><line class="cls-6" x1="159.69" y1="111.86" x2="174.99" y2="111.86"/><ellipse class="cls-6" cx="192.14" cy="109.58" rx="13.48" ry="10.79" transform="translate(71.3 294.84) rotate(-86.58)"/><path class="cls-7" d="M1.83,105a10.32,10.32,0,0,1-.07-1.16c0-6.27,5.66-11.35,12.64-11.35s12.64,5.08,12.64,11.35-5.66,11.35-12.64,11.35a13.65,13.65,0,0,1-6.82-1.79"/><ellipse class="cls-7" cx="84.29" cy="113.01" rx="6.53" ry="7.6"/><path class="cls-7" d="M135.88,103.53a12.86,12.86,0,0,1,11.43-7.73,12.57,12.57,0,0,1,12.33,12.41,12.37,12.37,0,0,1-12.33,12.41,10.37,10.37,0,0,1-3.42-.48,10.83,10.83,0,0,1-5.59-3.86"/><line class="cls-7" x1="144.6" y1="96.56" x2="141.48" y2="118.36"/><path class="cls-7" d="M5.06,113.29a13.29,13.29,0,0,1,7.34,2.1c4.1,2.77,4.15,6.79,7.11,10.38,2.08,2.51,6,5.27,13.94,5.94"/></svg>