<svg width="116" height="73" fill="none" xmlns="http://www.w3.org/2000/svg"><path d="M27.42 31a11.37 11.37 0 0 1-2.49 7.42c-2.46 3-6.36 4.53-11.73 4.53a19.54 19.54 0 0 1-5-1 19.732 19.732 0 0 0-4.64-1 .82.82 0 0 0-.63.37 3.72 3.72 0 0 0-.43 1.58H1.14V29.14h1.3l1.19 4a12.86 12.86 0 0 0 3.12 4.82c2.073 2.147 4.263 3.22 6.57 3.22 3.13 0 5.34-.86 6.62-2.6a5.9 5.9 0 0 0 1.14-3.62A5.369 5.369 0 0 0 19 30.67c-1.38-1.173-4.38-2.84-9-5a15 15 0 0 1-6.52-5.43 10.94 10.94 0 0 1-1.83-5.94 11.06 11.06 0 0 1 3.63-8.61 10.62 10.62 0 0 1 7.25-2.89A19.13 19.13 0 0 1 19 3.85c1.227.51 2.514.863 3.83 1.05.38 0 .7-.25 1-.76.3-.51.51-1 .74-1.34h1.3v12.46H24.7c-1.92-4.26-3.45-6.927-4.59-8a9.27 9.27 0 0 0-6.57-2.61 5.68 5.68 0 0 0-6 5.55 6.14 6.14 0 0 0 1.3 3.91 13.6 13.6 0 0 0 6.06 3.68c4.226 1.473 7.4 3.36 9.52 5.66a10.82 10.82 0 0 1 3 7.48V31Zm33.35 10.94H46.43v-1.32a3.22 3.22 0 0 0 1.85-.56 1.56 1.56 0 0 0 .84-1.25 1.169 1.169 0 0 0-.18-.57l-7.08-10.32-1.44 1.44v8.13a3.21 3.21 0 0 0 .88 2.63 2.88 2.88 0 0 0 1.82.5v1.32h-13.9v-1.32a2.85 2.85 0 0 0 1.78-.43 3.17 3.17 0 0 0 .94-2.7V4.57A3.2 3.2 0 0 0 31.16 2a3.07 3.07 0 0 0-1.94-.59V0h11.2v26.35l7.95-7.76a2.841 2.841 0 0 0 1-1.94 1.818 1.818 0 0 0-1-1.57 4.44 4.44 0 0 0-2.37-.62v-1.31h13v1.31a8.259 8.259 0 0 0-2.9.54 8.83 8.83 0 0 0-3 2l-5.65 5.42 10.63 15.26c.37.63.79 1.28 1.25 1.94a1.86 1.86 0 0 0 1.44 1v1.32" fill="#000"/><path d="M84.53 15.45a3 3 0 0 0-1.31.23 3.12 3.12 0 0 0-1.42 1.88L71.46 45.7a11.37 11.37 0 0 1-3.65 5.37 7.14 7.14 0 0 1-4.45 1.54 5.54 5.54 0 0 1-3.23-.94 3.15 3.15 0 0 1-1.48-1.86 9.897 9.897 0 0 1-.14-1.6 3.64 3.64 0 0 1 1.08-2.85 3.72 3.72 0 0 1 2.57-1 3.3 3.3 0 0 1 2.11.68c.38.265.66.648.8 1.09.154.478.232.978.23 1.48a3 3 0 0 1-.23 1.39 2.49 2.49 0 0 0 1.31.29 2.22 2.22 0 0 0 1.2-.29 7 7 0 0 0 2.17-3.08c.63-1.246 1-2.607 1.09-4a1.87 1.87 0 0 0-.12-.8l-8.79-23.56a3.73 3.73 0 0 0-1-1.6 2.62 2.62 0 0 0-1.74-.51v-1.2h14v1.2a7.001 7.001 0 0 0-2.37.31c-.55.21-.83.76-.83 1.63.049.703.204 1.394.46 2.05l4.22 11.83 4.22-11.83a7.07 7.07 0 0 0 .46-2.11c0-.83-.27-1.36-.8-1.57a6.89 6.89 0 0 0-2.39-.31v-1.2h8.38v1.2h-.01Zm15.86-12.52a13.15 13.15 0 0 0-4.15.65 12.35 12.35 0 0 0-3.72 1.94 11.999 11.999 0 0 0-2.91 3.22 13.65 13.65 0 0 0-1.81 4.83 9.64 9.64 0 0 0 .34 4.52 9.35 9.35 0 0 0 2.44 3.82 12 12 0 0 0 3.61 2.38 11.7 11.7 0 0 0 4 .86c1.279.03 2.553-.174 3.76-.6a12.769 12.769 0 0 0 3.73-2.08c0 .46.02 1.07.06 1.83v2.56c0 .94-.07 1.93-.17 2.94a20.46 20.46 0 0 1-.5 2.94c-.22.9-.557 1.767-1 2.58a7.872 7.872 0 0 1-1.42 2 6.148 6.148 0 0 1-2 1.34 6.614 6.614 0 0 1-2.59.5h-.85a8.163 8.163 0 0 1-1-.16 2.86 2.86 0 0 1-.8-.29.45.45 0 0 1-.26-.46 1.24 1.24 0 0 1 .65-.49c.411-.168.812-.362 1.2-.58a2.81 2.81 0 0 0 1-1c.31-.55.46-1.178.43-1.81a3 3 0 0 0-1-2.4 4 4 0 0 0-2.71-.89 5.54 5.54 0 0 0-2.37.5A3.83 3.83 0 0 0 90.67 33a3.59 3.59 0 0 0-.6 2 3.71 3.71 0 0 0 .67 2 7.131 7.131 0 0 0 1.9 1.9c.92.62 1.932 1.088 3 1.39a13.36 13.36 0 0 0 3.83.55c1.452.007 2.89-.279 4.23-.84a14.69 14.69 0 0 0 3.69-2.27 19.752 19.752 0 0 0 5.47-7.46 21.512 21.512 0 0 0 1.31-4.67c.271-1.652.402-3.325.39-5a22.141 22.141 0 0 0-1.14-7.17A18.313 18.313 0 0 0 110 7.56a12.371 12.371 0 0 0-2.87-2.46 14.616 14.616 0 0 0-3.4-1.6 11.004 11.004 0 0 0-3.34-.57Zm-.07 1.56c.706.01 1.397.21 2 .58a5.864 5.864 0 0 1 1.75 1.76 9.65 9.65 0 0 1 1.27 3c.323 1.366.477 2.767.46 4.17 0 1 0 1.94-.09 2.73a11.56 11.56 0 0 1-.39 2.16c-.208.7-.5 1.371-.87 2-.25.379-.557.716-.91 1a5.486 5.486 0 0 1-1.34.82 4.303 4.303 0 0 1-1.56.32 3.59 3.59 0 0 1-2.2-.73 5.56 5.56 0 0 1-1.57-2 11.54 11.54 0 0 1-.94-3 20.702 20.702 0 0 1-.32-3.72 23.358 23.358 0 0 1 .2-3.25c.11-1.006.35-1.994.71-2.94A5 5 0 0 1 98 5.3a3.55 3.55 0 0 1 2.32-.81Zm6.96 68.12V59.76H109V71.1h6.33v1.51h-8.05Zm-16.83-5.27h4.35l-1.34-3.56c-.4-1.08-.71-2-.91-2.67a15.85 15.85 0 0 1-.69 2.46l-1.41 3.77Zm-3.71 5.27 4.94-12.85h1.83l5.26 12.85h-1.94l-1.5-3.89H90l-1.4 3.89h-1.86Zm-12.18 0V61.28h-4.23v-1.52h10.18v1.52h-4.25v11.33h-1.7Zm-15.19 0V59.76h1.7v12.85h-1.7Zm-17.79-6.74h3.32a3.51 3.51 0 0 0 2.34-.61 2.16 2.16 0 0 0 .7-1.73 2.32 2.32 0 0 0-.41-1.38 2 2 0 0 0-1.08-.76 7.652 7.652 0 0 0-1.58-.11h-3.29v4.59Zm-1.7 6.74V59.76h4.85c.669-.02 1.339.024 2 .13a3.77 3.77 0 0 1 1.59.6 3.1 3.1 0 0 1 1 1.24 3.91 3.91 0 0 1 .39 1.75 4 4 0 0 1-1 2.78c-.7.75-2 1.13-3.77 1.13h-3.3v5.22h-1.76ZM23 67.34h4.35L26 63.78c-.41-1.08-.71-2-.91-2.67a15.85 15.85 0 0 1-.69 2.46L23 67.34Zm-3.71 5.27 4.91-12.85H26l5.3 12.85h-1.94l-1.5-3.89h-5.38l-1.41 3.89h-1.78Zm-9.61-4.5 1.7.43a5.78 5.78 0 0 1-1.92 3.2A5.33 5.33 0 0 1 6 72.83 6.13 6.13 0 0 1 2.66 72a5.28 5.28 0 0 1-2-2.45A8.81 8.81 0 0 1 0 66.09a7.46 7.46 0 0 1 .77-3.5A5.2 5.2 0 0 1 3 60.32a6.33 6.33 0 0 1 3.11-.78 5.26 5.26 0 0 1 3.25 1 5 5 0 0 1 1.83 2.76l-1.67.39a4 4 0 0 0-1.3-2A3.44 3.44 0 0 0 6 61a4.2 4.2 0 0 0-2.48.71 3.69 3.69 0 0 0-1.39 1.91 7.6 7.6 0 0 0-.41 2.46A7.84 7.84 0 0 0 2.23 69a3.59 3.59 0 0 0 1.49 1.83 4.19 4.19 0 0 0 2.18.6 3.71 3.71 0 0 0 2.42-.82 4.22 4.22 0 0 0 1.34-2.5h.02Z" fill="#000"/></svg>