<svg width="15" height="15" viewBox="0 0 15 15" fill="none" xmlns="http://www.w3.org/2000/svg">
  <path fill-rule="evenodd" clip-rule="evenodd"
    d="M1.36647 14.158C1.16299 13.9545 1.16299 13.6246 1.36647 13.4211L13.8928 0.89483C14.0962 0.691357 14.4261 0.691356 14.6296 0.894829C14.8331 1.0983 14.8331 1.4282 14.6296 1.63167L2.10331 14.158C1.89984 14.3614 1.56994 14.3614 1.36647 14.158Z"
    fill="#D7DADA"></path>
  <path fill-rule="evenodd" clip-rule="evenodd"
    d="M1.36644 0.89491C1.56992 0.691437 1.89981 0.691437 2.10328 0.89491L14.6296 13.4212C14.8331 13.6247 14.8331 13.9546 14.6296 14.1581C14.4261 14.3615 14.0962 14.3615 13.8927 14.1581L1.36644 1.63175C1.16297 1.42828 1.16297 1.09838 1.36644 0.89491Z"
    fill="#D7DADA"></path>
</svg>
