<svg width="15" height="15" viewBox="0 0 15 15" fill="none" xmlns="http://www.w3.org/2000/svg">
  <path fill-rule="evenodd" clip-rule="evenodd"
    d="M0.625969 13.8157C0.407962 14.0337 0.407962 14.3872 0.625969 14.6052C0.843975 14.8232 1.19743 14.8232 1.41544 14.6052L7.7312 8.28945L14.047 14.6053C14.265 14.8233 14.6185 14.8233 14.8365 14.6053C15.0545 14.3873 15.0545 14.0338 14.8365 13.8158L8.52067 7.49998L14.8365 1.18418C15.0545 0.966172 15.0545 0.612713 14.8365 0.394707C14.6185 0.1767 14.265 0.1767 14.047 0.394706L7.7312 6.71051L1.41546 0.394765C1.19745 0.176758 0.843992 0.176758 0.625986 0.394765C0.407979 0.612772 0.407979 0.966231 0.625985 1.18424L6.94173 7.49998L0.625969 13.8157Z"
    fill="#0072FF" />
</svg>
