<svg width="14" height="15" viewBox="0 0 14 15" fill="none" xmlns="http://www.w3.org/2000/svg" class="cursor-pointer">
  <path fill-rule="evenodd" clip-rule="evenodd"
    d="M8.80274 5.29972C8.1339 4.63087 7.17243 4.4165 6.07762 4.4165H5.02016C5.03446 3.54192 5.22297 3.10056 5.46316 2.86038C5.71307 2.61047 6.18076 2.4165 7.12762 2.4165H9.57762C10.5245 2.4165 10.9922 2.61047 11.2421 2.86038C11.492 3.11028 11.686 3.57798 11.686 4.52484V6.97484C11.686 7.9217 11.492 8.38939 11.2421 8.6393C11.0019 8.87948 10.5605 9.068 9.68595 9.0823V8.02484C9.68595 6.93003 9.47159 5.96856 8.80274 5.29972ZM9.68525 10.5825C10.7354 10.5686 11.6559 10.3468 12.3027 9.69996C12.9716 9.03112 13.186 8.06964 13.186 6.97484V4.52484C13.186 3.43003 12.9716 2.46856 12.3027 1.79972C11.6339 1.13087 10.6724 0.916504 9.57762 0.916504H7.12762C6.03281 0.916504 5.07134 1.13087 4.4025 1.79972C3.75566 2.44655 3.53389 3.36708 3.51999 4.41721C2.46986 4.4311 1.54934 4.65288 0.902499 5.29972C0.233655 5.96856 0.0192871 6.93003 0.0192871 8.02484V10.4748C0.0192871 11.5696 0.233655 12.5311 0.902499 13.2C1.57134 13.8688 2.53281 14.0832 3.62762 14.0832H6.07762C7.17243 14.0832 8.1339 13.8688 8.80274 13.2C9.44958 12.5531 9.67135 11.6326 9.68525 10.5825ZM4.26929 5.9165H3.62762C2.68076 5.9165 2.21307 6.11047 1.96316 6.36038C1.71325 6.61028 1.51929 7.07798 1.51929 8.02484V10.4748C1.51929 11.4217 1.71325 11.8894 1.96316 12.1393C2.21307 12.3892 2.68076 12.5832 3.62762 12.5832H6.07762C7.02448 12.5832 7.49218 12.3892 7.74208 12.1393C7.99199 11.8894 8.18595 11.4217 8.18595 10.4748V9.83317V8.02484C8.18595 7.07798 7.99199 6.61028 7.74208 6.36038C7.5078 6.12609 7.08209 5.94097 6.24961 5.91874C6.19411 5.91726 6.1368 5.9165 6.07762 5.9165H4.26929Z"
    fill="#0072FF"></path>
</svg>
