<svg width="16" height="16" viewBox="0 0 16 16" fill="none" xmlns="http://www.w3.org/2000/svg">
<path d="M4.19993 8.89961C3.69593 8.89961 3.29993 8.49461 3.29993 7.99961C3.29993 7.50461 3.70493 7.09961 4.19993 7.09961C4.69493 7.09961 5.09993 7.50461 5.09993 7.99961C5.09993 8.49461 4.70393 8.89961 4.19993 8.89961Z" fill="#0072FF"/>
<path d="M7.99998 8.89961C7.49598 8.89961 7.09998 8.49461 7.09998 7.99961C7.09998 7.50461 7.50498 7.09961 7.99998 7.09961C8.49498 7.09961 8.89998 7.50461 8.89998 7.99961C8.89998 8.49461 8.50398 8.89961 7.99998 8.89961Z" fill="#0072FF"/>
<path d="M10.9 7.99961C10.9 8.49461 11.296 8.89961 11.8 8.89961C12.304 8.89961 12.7 8.49461 12.7 7.99961C12.7 7.50461 12.295 7.09961 11.8 7.09961C11.305 7.09961 10.9 7.50461 10.9 7.99961Z" fill="#0072FF"/>
</svg>
