<svg width="100" height="100" viewBox="0 0 100 100" fill="none" xmlns="http://www.w3.org/2000/svg">
  <rect width="100" height="100" rx="10" ry="10" fill="white" />
  <path
    d="M28.0249 34.6048C38.303 34.6048 46.1266 42.7343 46.1266 53.4232C46.1266 64.1121 38.303 72.2416 28.0249 72.2416C17.7469 72.2416 10 64.1121 10 53.4232C10 42.7343 17.7469 34.6048 28.0249 34.6048ZM14.0652 53.4232C14.0652 62.2302 19.9712 68.7037 28.0249 68.7037C36.0786 68.7037 42.0614 62.2302 42.0614 53.4232C42.0614 44.6162 36.3087 38.1427 27.9482 38.1427C19.5877 38.1427 14.0652 44.7667 14.0652 53.4232Z"
    fill="#0072FF" />
  <path
    d="M71.8984 34.6048C82.1764 34.6048 90 42.7343 90 53.4232C90 64.1121 82.1764 72.2416 71.8984 72.2416C61.6203 72.2416 53.8734 64.1121 53.8734 53.4232C53.8734 42.7343 61.6203 34.6048 71.8984 34.6048ZM57.9386 53.4232C57.9386 62.2302 63.8447 68.7037 71.8984 68.7037C79.952 68.7037 85.9348 62.2302 85.9348 53.4232C85.9348 44.6162 80.1822 38.1427 71.8217 38.1427C63.4612 38.1427 57.9386 44.7667 57.9386 53.4232Z"
    fill="#0072FF" />
  <path d="M54.8591 71.1878L50 74.9552L45.1371 71.1878L50 67.4203L54.8591 71.1878Z" fill="#0072FF" />
  <path
    d="M49.8466 38.1991L48.8034 37.2544C47.6146 36.1743 46.3375 35.1882 45.0067 34.315C37.8658 29.6443 30 28.8614 24.6577 29.0346L24.558 26.0236C32.861 25.7564 40.5197 27.7624 46.7057 31.8084C47.791 32.516 48.8418 33.2988 49.8428 34.1343C50.8437 33.2988 51.8945 32.516 52.9799 31.8084C59.1659 27.7624 66.8245 25.7639 75.1275 26.0236L75.0278 29.0346C69.6894 28.8652 61.8236 29.6443 54.6788 34.315C53.3442 35.1882 52.0671 36.1743 50.8821 37.2544L49.8389 38.1991H49.8466Z"
    fill="#0072FF" />
  <path d="M28.8456 53.4232H25.7776V60.1527H28.8456V53.4232Z" fill="#0072FF" />
  <path d="M73.4708 53.4232H70.4027V60.1527H73.4708V53.4232Z" fill="#0072FF" />
</svg>
