<svg
  width="16"
  height="16"
  viewBox="0 0 20 20"
  fill="none"
  xmlns="http://www.w3.org/2000/svg"
>
  <path
    fill-rule="evenodd"
    clip-rule="evenodd"
    d="M10.0479 0.209722C7.6626 0.207298 5.35436 1.05441 3.53687 2.59926C1.71938 4.14411 0.511441 6.28571 0.12952 8.64027C-0.252401 10.9948 0.216663 13.4084 1.45265 15.4486C2.68864 17.4887 4.61076 19.022 6.87457 19.7737C7.37984 19.8661 7.55853 19.5519 7.55853 19.2869C7.55853 19.022 7.55853 18.4181 7.55853 17.5801C4.75488 18.1901 4.16334 16.2306 4.16334 16.2306C3.97734 15.6233 3.5822 15.1016 3.04803 14.7579C2.14224 14.1417 3.12198 14.1417 3.12198 14.1417C3.4395 14.1866 3.74265 14.3031 4.00847 14.4825C4.2743 14.6618 4.49583 14.8993 4.65629 15.1769C4.79262 15.4242 4.97644 15.642 5.19718 15.818C5.41792 15.994 5.67124 16.1247 5.94261 16.2026C6.21397 16.2804 6.49804 16.3039 6.77852 16.2717C7.05899 16.2395 7.33035 16.1523 7.57702 16.015C7.61569 15.508 7.83423 15.0316 8.19321 14.6717C5.96261 14.419 3.62109 13.5564 3.62109 9.74216C3.60577 8.74577 3.97421 7.78165 4.65012 7.04942C4.34909 6.18307 4.38427 5.23528 4.74871 4.39364C4.74871 4.39364 5.59289 4.12252 7.50924 5.42268C9.15482 4.97086 10.8918 4.97086 12.5373 5.42268C14.4537 4.12252 15.2917 4.39364 15.2917 4.39364C15.6612 5.22638 15.7052 6.16737 15.4149 7.03093C16.0908 7.76316 16.4593 8.72729 16.444 9.72367C16.444 13.581 14.0963 14.4252 11.8595 14.6532C12.0994 14.8943 12.2846 15.1841 12.4026 15.5031C12.5206 15.822 12.5687 16.1626 12.5435 16.5017C12.5435 17.845 12.5435 18.9295 12.5435 19.2561C12.5435 19.5827 12.7222 19.8353 13.2336 19.7367C15.4717 18.9652 17.365 17.4275 18.5792 15.3954C19.7933 13.3632 20.2502 10.9672 19.869 8.63085C19.4878 6.29447 18.2932 4.16797 16.4961 2.62705C14.699 1.08612 12.4151 0.229926 10.0479 0.209722Z"
    fill="#191717"
  />
</svg>
