<svg width="16" height="16" viewBox="0 0 16 16" fill="none" xmlns="http://www.w3.org/2000/svg">
<path d="M8 16C3.58698 16 0 12.413 0 8C0 3.58698 3.58698 0 8 0C12.413 0 16 3.58698 16 8C16 12.413 12.413 16 8 16ZM8 1.11628C4.20465 1.11628 1.11628 4.20465 1.11628 8C1.11628 11.7953 4.20465 14.8837 8 14.8837C11.7953 14.8837 14.8837 11.7953 14.8837 8C14.8837 4.20465 11.7953 1.11628 8 1.11628Z" fill="black"/>
<path d="M10.7607 10.9247C10.6639 10.9247 10.5672 10.9023 10.4779 10.8428L8.1709 9.46605C7.59788 9.12373 7.17369 8.3721 7.17369 7.70977V4.65861C7.17369 4.3535 7.42672 4.10047 7.73183 4.10047C8.03695 4.10047 8.28997 4.3535 8.28997 4.65861V7.70977C8.28997 7.97768 8.51323 8.3721 8.74392 8.50605L11.0509 9.8828C11.3188 10.0391 11.4007 10.3814 11.2444 10.6493C11.1328 10.8279 10.9467 10.9247 10.7607 10.9247Z" fill="black"/>
</svg>
