<svg
  width="16"
  height="16"
  viewBox="0 0 20 20"
  fill="none"
  xmlns="http://www.w3.org/2000/svg"
>
  <path
    d="M14.1971 0H5.8129C2.17108 0 0 2.17 0 5.81V14.18C0 17.83 2.17108 20 5.8129 20H14.1871C17.8289 20 20 17.83 20 14.19V5.81C20.01 2.17 17.8389 0 14.1971 0ZM10.005 13.88C7.86392 13.88 6.12305 12.14 6.12305 10C6.12305 7.86 7.86392 6.12 10.005 6.12C12.1461 6.12 13.8869 7.86 13.8869 10C13.8869 12.14 12.1461 13.88 10.005 13.88ZM15.9279 4.88C15.8779 5 15.8079 5.11 15.7178 5.21C15.6178 5.3 15.5077 5.37 15.3877 5.42C15.2676 5.47 15.1375 5.5 15.0075 5.5C14.7373 5.5 14.4872 5.4 14.2971 5.21C14.2071 5.11 14.137 5 14.087 4.88C14.037 4.76 14.007 4.63 14.007 4.5C14.007 4.37 14.037 4.24 14.087 4.12C14.137 3.99 14.2071 3.89 14.2971 3.79C14.5272 3.56 14.8774 3.45 15.1976 3.52C15.2676 3.53 15.3276 3.55 15.3877 3.58C15.4477 3.6 15.5077 3.63 15.5678 3.67C15.6178 3.7 15.6678 3.75 15.7178 3.79C15.8079 3.89 15.8779 3.99 15.9279 4.12C15.978 4.24 16.008 4.37 16.008 4.5C16.008 4.63 15.978 4.76 15.9279 4.88Z"
    fill="black"
  />
</svg>
