<svg width="16" height="17" viewBox="0 0 16 17" fill="none" xmlns="http://www.w3.org/2000/svg">
  <path
    d="M13.6659 0.0812988H12.3341C10.8061 0.0812988 10 0.887373 10 2.41541V3.74719C10 5.27522 10.8061 6.0813 12.3341 6.0813H13.6659C15.1939 6.0813 16 5.27522 16 3.74719V2.41541C16 0.887373 15.1939 0.0812988 13.6659 0.0812988Z"
    fill="#0072FF" />
  <path
    d="M3.67287 10.0913H2.3411C0.806069 10.0913 0 10.8974 0 12.4254V13.7572C0 15.2922 0.806069 16.0983 2.33409 16.0983H3.66586C5.19389 16.0983 5.99995 15.2922 5.99995 13.7642V12.4324C6.00696 10.8974 5.20089 10.0913 3.67287 10.0913Z"
    fill="#0072FF" />
  <path
    d="M3 6.0813C4.65685 6.0813 6 4.73815 6 3.0813C6 1.42444 4.65685 0.0812988 3 0.0812988C1.34315 0.0812988 0 1.42444 0 3.0813C0 4.73815 1.34315 6.0813 3 6.0813Z"
    fill="black" />
  <path
    d="M13 16.0813C14.6569 16.0813 16 14.7382 16 13.0813C16 11.4244 14.6569 10.0813 13 10.0813C11.3431 10.0813 10 11.4244 10 13.0813C10 14.7382 11.3431 16.0813 13 16.0813Z"
    fill="black" />
</svg>
