<svg width="14" height="4" viewBox="0 0 14 4" fill="none" xmlns="http://www.w3.org/2000/svg">
  <path fill-rule="evenodd" clip-rule="evenodd"
    d="M1.74945 0.689941C1.02945 0.689941 0.439453 1.27994 0.439453 1.99994C0.439453 2.71994 1.02945 3.30994 1.74945 3.30994C2.46945 3.30994 3.05945 2.71994 3.05945 1.99994C3.05945 1.27994 2.46945 0.689941 1.74945 0.689941ZM6.74945 0.689941C6.02945 0.689941 5.43945 1.27994 5.43945 1.99994C5.43945 2.71994 6.02945 3.30994 6.74945 3.30994C7.46945 3.30994 8.05945 2.71994 8.05945 1.99994C8.05945 1.27994 7.46945 0.689941 6.74945 0.689941ZM10.4395 1.99994C10.4395 1.27994 11.0295 0.689941 11.7495 0.689941C12.4695 0.689941 13.0595 1.27994 13.0595 1.99994C13.0595 2.71994 12.4695 3.30994 11.7495 3.30994C11.0295 3.30994 10.4395 2.71994 10.4395 1.99994Z"
    fill="black" fill-opacity="0.4" />
</svg>
