<svg viewBox="0 0 18 19" fill="none" xmlns="http://www.w3.org/2000/svg">
  <path
    d="M9 0.800781C4.041 0.800781 0 4.84178 0 9.80078C0 14.7598 4.041 18.8008 9 18.8008C13.959 18.8008 18 14.7598 18 9.80078C18 4.84178 13.959 0.800781 9 0.800781ZM13.302 7.73078L8.199 12.8338C8.073 12.9598 7.902 13.0318 7.722 13.0318C7.542 13.0318 7.371 12.9598 7.245 12.8338L4.698 10.2868C4.437 10.0258 4.437 9.59378 4.698 9.33278C4.959 9.07178 5.391 9.07178 5.652 9.33278L7.722 11.4028L12.348 6.77678C12.609 6.51578 13.041 6.51578 13.302 6.77678C13.563 7.03778 13.563 7.46078 13.302 7.73078Z"
    fill="white" />
</svg>
