<svg viewBox="0 0 16 16" fill="none" xmlns="http://www.w3.org/2000/svg">
  <path fill-rule="evenodd" clip-rule="evenodd"
    d="M0 7.62793C0 11.8326 3.42326 15.2559 7.62793 15.2559C11.8326 15.2559 15.2559 11.8326 15.2559 7.62793C15.2559 3.42326 11.8326 0 7.62793 0C3.42326 0 0 3.42326 0 7.62793ZM1.11628 7.62793C1.11628 4.04094 4.0335 1.11628 7.62793 1.11628C11.2224 1.11628 14.1396 4.04094 14.1396 7.62793C14.1396 11.2149 11.2224 14.1396 7.62793 14.1396C4.0335 14.1396 1.11628 11.2149 1.11628 7.62793ZM15.0475 15.8363C15.1591 15.9479 15.3005 16 15.4419 16C15.5833 16 15.7247 15.9479 15.8363 15.8363C16.0521 15.6205 16.0521 15.2633 15.8363 15.0474L14.3479 13.5591C14.1321 13.3432 13.7749 13.3432 13.5591 13.5591C13.3433 13.7749 13.3433 14.1321 13.5591 14.3479L15.0475 15.8363Z"
    fill="#0072FF"></path>
</svg>
