<svg width="19" height="19" viewBox="0 0 19 19" fill="none" xmlns="http://www.w3.org/2000/svg">
<path d="M9.5 0.5C4.541 0.5 0.5 4.541 0.5 9.5C0.5 14.459 4.541 18.5 9.5 18.5C14.459 18.5 18.5 14.459 18.5 9.5C18.5 4.541 14.459 0.5 9.5 0.5ZM13.802 7.43L8.699 12.533C8.573 12.659 8.402 12.731 8.222 12.731C8.042 12.731 7.871 12.659 7.745 12.533L5.198 9.986C4.937 9.725 4.937 9.293 5.198 9.032C5.459 8.771 5.891 8.771 6.152 9.032L8.222 11.102L12.848 6.476C13.109 6.215 13.541 6.215 13.802 6.476C14.063 6.737 14.063 7.16 13.802 7.43Z" fill="#0072FF"/>
</svg>
