<svg width="14" height="15" viewBox="0 0 14 15" fill="none" xmlns="http://www.w3.org/2000/svg">
  <path fill-rule="evenodd" clip-rule="evenodd"
    d="M7.36815 12.6238C7.25942 12.268 7.2011 11.8916 7.2011 11.5022C7.2011 9.29936 9.06714 7.51361 11.369 7.51357C11.2674 7.23473 11.1953 6.90294 11.1953 6.67275V5.3675C11.1953 2.82016 9.12512 0.75 6.5848 0.75C4.03746 0.75 1.9673 2.82016 1.9673 5.3675V6.67275C1.9673 7.00959 1.81292 7.56397 1.6445 7.85169L0.851522 9.17097C0.549771 9.67623 0.479596 10.2657 0.669068 10.771C0.858539 11.2832 1.28661 11.6832 1.848 11.8727C2.59887 12.1253 3.3708 12.3148 4.14974 12.4411C4.18831 12.4481 4.22688 12.4534 4.26546 12.4587L4.26552 12.4587L4.26558 12.4587C4.30416 12.4639 4.34274 12.4692 4.38131 12.4762C4.47942 12.4902 4.58453 12.5042 4.68964 12.5183C4.8721 12.5463 5.05499 12.5674 5.24446 12.5815C5.68656 12.6236 6.13568 12.6446 6.5848 12.6446C6.84741 12.6446 7.10755 12.6372 7.36815 12.6238ZM8.15038 14.0364C7.76321 14.474 7.1984 14.75 6.5704 14.75C6.01602 14.75 5.46866 14.5254 5.0827 14.1254C4.85814 13.9149 4.68972 13.6342 4.59147 13.3465C4.63977 13.3539 4.68806 13.3594 4.7374 13.365L4.73743 13.365L4.73746 13.365L4.73748 13.365C4.78127 13.3699 4.82601 13.375 4.87217 13.3816C5.03357 13.4026 5.20199 13.4237 5.37041 13.4377C5.77041 13.4728 6.17742 13.4939 6.58444 13.4939C6.96716 13.4939 7.34989 13.4746 7.72647 13.4422C7.84918 13.6528 7.99125 13.8516 8.15038 14.0364ZM10.829 12.9362L13.2291 10.7162C13.5391 10.4362 13.559 9.96619 13.269 9.65619C12.989 9.35619 12.509 9.33615 12.209 9.61616L10.3391 11.3462L9.73905 10.7462C9.44905 10.4562 8.96905 10.4562 8.67905 10.7462C8.38905 11.0362 8.38905 11.5162 8.67905 11.8062L9.78906 12.9161C9.93906 13.0661 10.1291 13.1362 10.3191 13.1362C10.4991 13.1362 10.689 13.0662 10.829 12.9362Z"
    fill="#777" />
</svg>
