<svg
  width="16"
  height="16"
  viewBox="0 0 20 18"
  fill="none"
  xmlns="http://www.w3.org/2000/svg"
>
  <path
    fill-rule="evenodd"
    clip-rule="evenodd"
    d="M1.3749 7.8479C6.74359 5.50884 10.3236 3.96679 12.1148 3.22175C17.2292 1.0945 18.2919 0.724979 18.9846 0.712777C19.1369 0.710093 19.4776 0.747849 19.6982 0.92689C19.8845 1.07807 19.9358 1.28229 19.9603 1.42562C19.9848 1.56896 20.0154 1.89548 19.9911 2.15061C19.714 5.06265 18.5147 12.1294 17.9046 15.3909C17.6465 16.771 17.1382 17.2337 16.6461 17.279C15.5766 17.3774 14.7645 16.5722 13.7287 15.8932C12.1078 14.8307 11.1921 14.1693 9.61879 13.1325C7.80053 11.9343 8.97923 11.2758 10.0154 10.1995C10.2866 9.91786 14.9987 5.63185 15.0899 5.24305C15.1013 5.19442 15.1119 5.01316 15.0042 4.91745C14.8965 4.82174 14.7376 4.85447 14.6229 4.8805C14.4604 4.9174 11.871 6.62886 6.85486 10.0149C6.11988 10.5196 5.45416 10.7655 4.8577 10.7526C4.20015 10.7384 2.93528 10.3808 1.99498 10.0752C0.84166 9.70027 -0.074973 9.50206 0.00484519 8.86537C0.0464194 8.53374 0.503103 8.19458 1.3749 7.8479Z"
    fill="black"
  />
</svg>
