<svg
  width="16"
  height="16"
  viewBox="0 0 20 20"
  fill="none"
  xmlns="http://www.w3.org/2000/svg"
>
  <path
    d="M14.2 0H5.81C2.17 0 0 2.17 0 5.81V14.18C0 17.83 2.17 20 5.81 20H14.19C17.83 20 20 17.83 20 14.19V5.81C20.01 2.17 17.84 0 14.2 0ZM15.72 8.73H15.71C15.61 8.74 15.5 8.74 15.39 8.75C14.79 8.75 14.21 8.6 13.69 8.32C13.17 8.03 12.73 7.63 12.4 7.13V12.63C12.4 13.43 12.16 14.21 11.72 14.88C11.27 15.55 10.64 16.07 9.89 16.38C9.15 16.68 8.34 16.76 7.55 16.61C6.76 16.45 6.04 16.06 5.47 15.5C4.9 14.93 4.51 14.21 4.36 13.42C4.2 12.63 4.28 11.81 4.59 11.07C4.9 10.33 5.42 9.7 6.08 9.25C6.75 8.8 7.54 8.57 8.34 8.57C8.43 8.57 8.51 8.57 8.59 8.57V10.57C8.51 10.57 8.43 10.54 8.34 10.54C7.79 10.54 7.26 10.76 6.88 11.15C6.49 11.54 6.27 12.07 6.27 12.62C6.27 13.17 6.49 13.69 6.88 14.08C7.26 14.47 7.79 14.69 8.34 14.69C9.49 14.69 10.5 13.79 10.5 12.64L10.52 3.31H12.43C12.52 4.14 12.9 4.92 13.5 5.5C14.1 6.08 14.88 6.43 15.72 6.49V8.72V8.73Z"
    fill="black"
  />
</svg>
