<svg width="14" height="15" viewBox="0 0 14 15" fill="none" xmlns="http://www.w3.org/2000/svg">
<path fill-rule="evenodd" clip-rule="evenodd" d="M7.40819 12.3738C7.29946 12.018 7.24114 11.6416 7.24114 11.2522C7.24114 9.04936 9.10718 7.26361 11.4091 7.26357C11.3074 6.98473 11.2353 6.65294 11.2353 6.42275V5.1175C11.2353 2.57016 9.16516 0.5 6.62484 0.5C4.07749 0.5 2.00734 2.57016 2.00734 5.1175V6.42275C2.00734 6.75959 1.85295 7.31397 1.68454 7.60169L0.891561 8.92097C0.58981 9.42623 0.519635 10.0157 0.709107 10.521C0.898579 11.0332 1.32664 11.4332 1.88804 11.6227C2.63891 11.8753 3.41083 12.0648 4.18977 12.1911C4.22835 12.1981 4.26692 12.2034 4.30549 12.2087L4.30556 12.2087L4.30562 12.2087C4.3442 12.2139 4.38277 12.2192 4.42135 12.2262C4.51946 12.2402 4.62457 12.2542 4.72968 12.2683C4.91214 12.2963 5.09503 12.3174 5.2845 12.3315C5.7266 12.3736 6.17572 12.3946 6.62484 12.3946C6.88745 12.3946 7.14759 12.3872 7.40819 12.3738ZM8.19042 13.7864C7.80325 14.224 7.23843 14.5 6.61044 14.5C6.05606 14.5 5.5087 14.2754 5.12274 13.8754C4.89818 13.6649 4.72976 13.3842 4.63151 13.0965C4.67981 13.1039 4.7281 13.1094 4.77744 13.115L4.77747 13.115L4.7775 13.115L4.77752 13.115C4.82131 13.1199 4.86605 13.125 4.91221 13.1316C5.07361 13.1526 5.24203 13.1737 5.41045 13.1877C5.81045 13.2228 6.21746 13.2439 6.62448 13.2439C7.0072 13.2439 7.38993 13.2246 7.76651 13.1922C7.88922 13.4028 8.03129 13.6016 8.19042 13.7864ZM10.8691 12.6862L13.2691 10.4662C13.5791 10.1862 13.5991 9.71619 13.3091 9.40619C13.0291 9.10619 12.5491 9.08615 12.2491 9.36616L10.3791 11.0962L9.77908 10.4962C9.48908 10.2062 9.00909 10.2062 8.71909 10.4962C8.42909 10.7862 8.42909 11.2662 8.71909 11.5562L9.8291 12.6661C9.9791 12.8161 10.1691 12.8862 10.3591 12.8862C10.5391 12.8862 10.7291 12.8162 10.8691 12.6862Z" fill="black" fill-opacity="0.4"/>
</svg>
