<svg width="15" height="16" viewBox="0 0 15 16" fill="none" xmlns="http://www.w3.org/2000/svg">
<path d="M13.9269 11.4525C13.7023 12.054 13.2291 12.5112 12.6116 12.7197C11.7455 13.0084 10.8552 13.2249 9.957 13.3773C9.86878 13.3934 9.78056 13.4094 9.69234 13.4174C9.54798 13.4415 9.40362 13.4575 9.25926 13.4736C9.08282 13.4976 8.89836 13.5137 8.7139 13.5297C8.20865 13.5698 7.71141 13.5939 7.20615 13.5939C6.69287 13.5939 6.17959 13.5698 5.67433 13.5217C5.4578 13.5056 5.24928 13.4816 5.04076 13.4495C4.92046 13.4335 4.80016 13.4174 4.68788 13.4014C4.59966 13.3853 4.51144 13.3773 4.42322 13.3613C3.533 13.2169 2.65081 13.0004 1.79267 12.7117C1.15107 12.4951 0.661852 12.038 0.445313 11.4525C0.228774 10.8751 0.308973 10.2014 0.653832 9.62397L1.56009 8.11621C1.75257 7.78739 1.92901 7.15381 1.92901 6.76886V5.27714C1.92901 2.36589 4.2949 0 7.20615 0C10.1094 0 12.4753 2.36589 12.4753 5.27714V6.76886C12.4753 7.15381 12.6517 7.78739 12.8522 8.11621L13.7585 9.62397C14.0873 10.1854 14.1514 10.843 13.9269 11.4525Z" fill="#0072FF"/>
<path d="M9.46013 14.404C9.12329 15.3343 8.23308 16 7.19048 16C6.5569 16 5.93134 15.7434 5.49024 15.2862C5.23361 15.0456 5.04113 14.7248 4.92885 14.396C5.03311 14.412 5.13737 14.4201 5.24965 14.4361C5.4341 14.4602 5.62658 14.4842 5.81906 14.5003C6.2762 14.5404 6.74136 14.5644 7.20652 14.5644C7.66366 14.5644 8.1208 14.5404 8.56991 14.5003C8.73833 14.4842 8.90675 14.4762 9.06715 14.4521C9.19547 14.4361 9.32379 14.4201 9.46013 14.404Z" fill="#0072FF"/>
</svg>
