<?xml version="1.0" standalone="no"?>
<!DOCTYPE svg PUBLIC "-//W3C//DTD SVG 20010904//EN"
 "http://www.w3.org/TR/2001/REC-SVG-20010904/DTD/svg10.dtd">
<svg version="1.0" xmlns="http://www.w3.org/2000/svg"
 width="700.000000pt" height="700.000000pt" viewBox="0 0 700.000000 700.000000"
 preserveAspectRatio="xMidYMid meet">
<metadata>
Created by potrace 1.14, written by Peter Selinger 2001-2017
</metadata>
<g transform="translate(0.000000,700.000000) scale(0.100000,-0.100000)"
fill="#000000" stroke="none">
<path d="M354 5860 c-17 -6 -17 -8 5 -19 12 -7 32 -21 44 -31 12 -10 80 -64
152 -119 123 -95 133 -101 180 -102 28 0 57 -2 66 -4 10 -1 60 -6 113 -10 53
-3 106 -8 119 -11 12 -2 47 -7 77 -10 30 -3 57 -7 60 -9 3 -2 29 -6 59 -10 30
-4 63 -9 75 -11 12 -2 37 -7 56 -10 19 -3 64 -13 100 -21 36 -8 74 -17 85 -19
11 -2 61 -15 110 -29 50 -14 97 -28 105 -30 142 -35 430 -149 628 -248 376
-189 659 -391 971 -696 l105 -102 90 89 c96 94 165 157 231 213 22 19 42 37
45 40 10 11 208 158 285 211 192 132 489 288 725 381 133 51 358 125 435 143
6 1 37 9 70 17 235 61 516 104 795 123 l104 7 168 130 c92 71 166 132 164 136
-8 13 -470 2 -601 -14 -22 -3 -60 -7 -85 -10 -58 -5 -138 -15 -170 -20 -14 -3
-43 -7 -65 -11 -73 -10 -249 -45 -330 -66 -44 -11 -84 -21 -90 -22 -118 -27
-421 -128 -530 -176 -22 -10 -69 -30 -105 -45 -339 -142 -769 -421 -1072 -695
-31 -28 -61 -51 -65 -50 -4 0 -35 25 -68 54 -33 29 -76 66 -95 82 -19 16 -40
33 -46 39 -60 54 -211 164 -354 258 -85 56 -122 79 -225 139 -34 20 -310 157
-367 182 -152 68 -507 191 -605 211 -10 1 -45 10 -78 18 -64 17 -237 53 -295
62 -19 3 -60 10 -90 15 -30 5 -77 12 -105 15 -51 5 -131 15 -175 20 -116 15
-574 26 -606 15z"/>
<path d="M1380 4699 c-200 -27 -344 -70 -505 -150 -154 -77 -261 -155 -385
-279 -143 -142 -221 -251 -310 -435 -90 -184 -137 -341 -166 -553 -12 -87 -11
-382 2 -482 59 -448 268 -831 598 -1096 176 -141 421 -256 626 -294 30 -6 66
-12 79 -15 93 -18 281 -23 409 -11 596 56 1104 463 1311 1049 29 84 64 214 75
287 3 19 9 49 12 65 3 17 8 116 10 220 3 176 -3 254 -31 408 -3 15 -8 41 -11
58 -12 67 -77 249 -124 347 -160 335 -411 590 -735 743 -154 73 -290 113 -475
138 -77 11 -302 11 -380 0z m360 -314 c384 -53 709 -287 886 -638 80 -157 122
-299 152 -509 10 -63 8 -339 -2 -408 -56 -373 -204 -654 -466 -881 -74 -64
-270 -174 -345 -194 -16 -5 -34 -10 -40 -11 -118 -38 -179 -46 -340 -48 -233
-2 -362 27 -546 118 -328 164 -561 482 -649 885 -58 262 -41 600 41 851 97
299 294 551 544 697 113 66 292 125 425 139 30 4 56 7 58 9 5 4 238 -3 282
-10z"/>
<path d="M1570 2748 l0 -298 33 -1 c126 -4 317 -3 318 1 4 16 3 590 -1 591 -3
0 -83 2 -178 2 l-172 2 0 -297z"/>
<path d="M5217 4704 c-2 -2 -21 -6 -43 -8 -274 -30 -558 -155 -781 -343 -329
-279 -528 -677 -569 -1138 -55 -626 195 -1217 655 -1549 462 -332 1083 -383
1593 -131 307 152 554 404 707 719 44 90 106 254 116 308 2 11 6 27 9 36 3 9
8 33 11 52 3 19 8 42 10 50 27 94 38 349 23 525 -24 285 -122 563 -286 810
-74 113 -253 299 -367 383 -191 141 -433 239 -685 277 -74 11 -383 18 -393 9z
m397 -329 c427 -81 751 -370 904 -807 29 -81 60 -206 68 -273 55 -474 -40
-861 -290 -1175 -54 -67 -181 -182 -260 -235 -193 -128 -406 -192 -643 -193
-323 -1 -597 107 -818 323 -124 121 -202 231 -271 383 -43 93 -100 277 -109
352 -4 30 -11 77 -16 105 -4 27 -6 127 -4 220 3 155 7 209 20 273 3 12 7 34
10 50 87 437 380 793 765 930 47 17 103 33 125 38 22 4 47 9 55 11 8 2 40 6
70 9 30 3 56 7 58 9 10 9 263 -6 336 -20z"/>
<path d="M5048 3042 c-13 -2 -15 -42 -15 -297 0 -211 3 -295 11 -296 15 -1
318 -1 332 0 7 1 10 94 10 298 l-1 297 -161 0 c-88 1 -167 0 -176 -2z"/>
<path d="M3405 1744 c-38 -30 -81 -64 -95 -75 -14 -11 -75 -59 -137 -107 -62
-48 -111 -90 -110 -94 1 -4 61 -53 133 -110 72 -57 146 -115 165 -130 19 -15
51 -41 73 -57 21 -17 42 -31 46 -31 3 0 69 50 146 111 76 61 153 121 169 134
17 13 47 37 68 54 l38 30 -208 165 c-114 91 -210 166 -213 166 -3 0 -36 -25
-75 -56z"/>
</g>
</svg>
