<svg width="100" height="100" viewBox="0 0 100 100" fill="none" xmlns="http://www.w3.org/2000/svg">
<rect width="100" height="100" fill="white"/>
<path d="M28.0249 36.2694C38.303 36.2694 46.1266 44.5532 46.1266 55.4449C46.1266 66.3365 38.303 74.6203 28.0249 74.6203C17.7469 74.6203 10 66.3365 10 55.4449C10 44.5532 17.7469 36.2694 28.0249 36.2694V36.2694ZM14.0652 55.4449C14.0652 64.419 19.9712 71.0153 28.0249 71.0153C36.0786 71.0153 42.0614 64.419 42.0614 55.4449C42.0614 46.4708 36.3087 39.8744 27.9482 39.8744C19.5877 39.8744 14.0652 46.6242 14.0652 55.4449V55.4449Z" fill="black"/>
<path d="M71.8983 36.2694C82.1764 36.2694 90 44.5532 90 55.4449C90 66.3365 82.1764 74.6203 71.8983 74.6203C61.6203 74.6203 53.8734 66.3365 53.8734 55.4449C53.8734 44.5532 61.6203 36.2694 71.8983 36.2694V36.2694ZM57.9386 55.4449C57.9386 64.419 63.8446 71.0153 71.8983 71.0153C79.952 71.0153 85.9348 64.419 85.9348 55.4449C85.9348 46.4708 80.1821 39.8744 71.8216 39.8744C63.4611 39.8744 57.9386 46.6242 57.9386 55.4449V55.4449Z" fill="black"/>
<path d="M54.859 73.5465L50 77.3854L45.1371 73.5465L50 69.7076L54.859 73.5465Z" fill="#0072FF"/>
<path d="M85.8121 23.0349C84.4621 24.0704 83.116 25.1097 81.7699 26.1452C75.8178 26.3906 65.7852 27.7712 56.3969 34.4711C54.2838 35.9822 52.466 37.5699 50.9051 39.1423L49.8236 40.2238L48.7382 39.1423C47.1774 37.5699 45.3595 35.9822 43.2464 34.4711C33.8619 27.7712 23.8255 26.3906 17.8773 26.1452C16.5273 25.1097 15.1812 24.0704 13.8351 23.0349C25.5398 22.6322 36.3317 25.7195 45.0374 31.9822C46.7018 33.1749 48.3049 34.498 49.8236 35.9208C51.3423 34.498 52.9453 33.1749 54.6059 31.9822C63.3154 25.7195 74.1074 22.6322 85.8121 23.0349Z" fill="#0072FF"/>
<path d="M32.1284 55.4449H28.0632V62.302H32.1284V55.4449Z" fill="#0072FF"/>
<path d="M71.9368 55.4449H67.8716V62.302H71.9368V55.4449Z" fill="#0072FF"/>
</svg>
