<svg width="11" height="11" viewBox="0 0 11 11" fill="none" xmlns="http://www.w3.org/2000/svg">
  <path fill-rule="evenodd" clip-rule="evenodd" d="M9.2 3.96076L10.1639 4.44269C10.2843 4.50534 10.3614 4.63064 10.3614 4.76558V7.65714C10.3614 7.85473 10.2024 8.01859 10 8.01859L7.83133 8.02341V10.1873H8.55422C8.75181 10.1873 8.91566 10.3511 8.91566 10.5487C8.91566 10.7463 8.75181 10.9102 8.55422 10.9102H0.361446C0.163855 10.9102 0 10.7463 0 10.5487C0 10.3511 0.163855 10.1873 0.361446 10.1873H1.08434V2.35594C1.08434 1.39208 1.73012 0.910156 2.53012 0.910156H6.38554C7.18554 0.910156 7.83133 1.39208 7.83133 2.35594V7.30052L9.63855 7.2957V4.98726L8.87229 4.60654C8.69398 4.51979 8.62169 4.30293 8.71325 4.11979C8.8 3.94148 9.02169 3.87401 9.2 3.96076ZM3.2 2.35594C2.6988 2.35594 2.28916 2.5969 2.28916 3.26678V3.85473C2.28916 4.52461 2.6988 4.76558 3.2 4.76558H5.71566C6.21687 4.76558 6.62651 4.52461 6.62651 3.85955V3.26678C6.62651 2.5969 6.21687 2.35594 5.72048 2.35594H3.2ZM5.026 7.45317H5.57302C5.82079 7.45317 5.88836 7.60441 5.72425 7.79104L4.52724 9.15216L4.38566 9.31305C4.18938 9.53507 4.02849 9.47394 4.02849 9.1779V7.90366H3.48146C3.2337 7.90366 3.16612 7.75243 3.33023 7.5658L4.52724 6.20468L4.66882 6.04379C4.86511 5.82176 5.026 5.8829 5.026 6.17893V7.45317Z" fill="black" fill-opacity="0.4"></path>
</svg>
