<svg width="210" height="131" viewBox="0 0 210 131" fill="none" xmlns="http://www.w3.org/2000/svg">
<g clip-path="url(#clip0_4782_18988)">
<path d="M87.2 94.84L95.4 98.64C86 114.44 68.4 123.84 49 123.84C20.4 123.84 0 103.04 0 73.84C0 44.64 20 23.84 48.2 23.84C76.4 23.84 94.8 44.44 95.4 76.04H85.15C85.17 75.48 85.18 74.92 85.18 74.35C85.18 51.7 68.91 34.48 47.54 34.48C26.17 34.48 10.05 51.7 10.05 74.35C10.05 88.86 16.66 101.15 27.04 108.1C27.07 108.12 27.11 108.15 27.15 108.18C33.65 112.75 41.61 115.44 50.2 115.44C65 115.44 78 107.84 87.2 94.84Z" fill="black"/>
<path d="M117.47 120.06L104.8 130.06L92.12 120.06L104.8 110.05L117.47 120.06Z" fill="#0072FF"/>
<path d="M104.4 32.41L101.68 29.9C98.59 27.04 95.26 24.41 91.78 22.09C73.16 9.67999 52.64 7.60999 38.73 8.05999L38.46 0.0599927C60.12 -0.640007 80.08 4.66999 96.21 15.43C99.04 17.32 101.78 19.39 104.39 21.61C107 19.38 109.74 17.31 112.57 15.43C128.71 4.66999 148.69 -0.640007 170.33 0.0599927L170.07 8.05999C156.15 7.59999 135.64 9.67999 117.02 22.09C113.55 24.41 110.21 27.03 107.12 29.9L104.4 32.41Z" fill="#0072FF"/>
<path d="M59.7 68.25H35.7V76.18H59.7V68.25Z" fill="#0072FF"/>
<path d="M201.5 94.84L209.7 98.64C200.3 114.44 182.7 123.84 163.3 123.84C134.7 123.84 114.3 103.04 114.3 73.84C114.3 44.64 134.3 23.84 162.5 23.84C190.7 23.84 209.1 44.44 209.7 76.04H199.45C199.47 75.48 199.48 74.92 199.48 74.35C199.48 51.7 183.21 34.48 161.84 34.48C140.47 34.48 124.35 51.7 124.35 74.35C124.35 88.86 130.96 101.15 141.34 108.1C141.37 108.12 141.41 108.15 141.45 108.18C147.95 112.75 155.91 115.44 164.5 115.44C179.3 115.44 192.3 107.84 201.5 94.84Z" fill="black"/>
<path d="M174 68.22H150V76.22H174V68.22Z" fill="#0072FF"/>
</g>
<defs>
<clipPath id="clip0_4782_18988">
<rect width="209.7" height="130.06" fill="white"/>
</clipPath>
</defs>
</svg>
