<svg width="168" height="15" viewBox="0 0 168 15" fill="none" xmlns="http://www.w3.org/2000/svg">
<path d="M9.18561 6.09766V2.90723H6.45221V12.8477H8.17487V14.5H2.7608V12.8477H4.4483V2.90723H1.73248V6.09766H0.0977173V1.25488H10.8204V6.09766H9.18561ZM18.6183 5.0166C20.3351 5.0166 21.1935 5.94531 21.1935 7.80273V12.8828H22.758V14.5H19.3742V8.45312C19.3742 7.79102 19.2775 7.3252 19.0842 7.05566C18.8967 6.78613 18.6037 6.65137 18.2053 6.65137C17.5314 6.65137 16.6555 7.04688 15.5773 7.83789V12.8828H17.1769V14.5H12.1056V12.8828H13.758V2.85449H12.1056V1.25488H15.5773V6.34375C16.6672 5.45898 17.6808 5.0166 18.6183 5.0166ZM33.9046 10.3428H26.1614C26.2728 11.2275 26.6155 11.9277 27.1897 12.4434C27.764 12.9531 28.4671 13.208 29.2991 13.208C29.9085 13.208 30.4739 13.082 30.9954 12.8301C31.5169 12.5781 31.9534 12.1914 32.305 11.6699L33.9046 12.3906C33.4007 13.1758 32.7386 13.7705 31.9183 14.1748C31.1038 14.5732 30.2161 14.7725 29.2552 14.7725C28.2591 14.7725 27.3743 14.5645 26.6009 14.1484C25.8274 13.7324 25.2239 13.1523 24.7903 12.4082C24.3626 11.6641 24.1487 10.8262 24.1487 9.89453C24.1487 8.96875 24.3597 8.13379 24.7815 7.38965C25.2093 6.64551 25.7923 6.06543 26.5306 5.64941C27.2689 5.22754 28.0833 5.0166 28.9739 5.0166C29.9466 5.0166 30.7933 5.2334 31.514 5.66699C32.2405 6.09473 32.8118 6.70996 33.2278 7.5127C33.6439 8.30957 33.8694 9.25293 33.9046 10.3428ZM29.0091 6.52832C28.3235 6.52832 27.723 6.75977 27.2073 7.22266C26.6917 7.67969 26.3606 8.28613 26.2142 9.04199H31.9974C31.8274 8.28613 31.4671 7.67969 30.9163 7.22266C30.3655 6.75977 29.7298 6.52832 29.0091 6.52832ZM49.2017 5.12207V2.90723H44.2359V6.83594H48.5162V8.48828H44.2359V12.8477H45.9234V14.5H40.5621V12.8477H42.232V2.90723H40.5621V1.25488H50.8365V5.12207H49.2017ZM60.6208 10.3428H52.8776C52.9889 11.2275 53.3317 11.9277 53.9059 12.4434C54.4801 12.9531 55.1833 13.208 56.0153 13.208C56.6247 13.208 57.1901 13.082 57.7116 12.8301C58.2331 12.5781 58.6696 12.1914 59.0212 11.6699L60.6208 12.3906C60.1169 13.1758 59.4548 13.7705 58.6344 14.1748C57.82 14.5732 56.9323 14.7725 55.9714 14.7725C54.9753 14.7725 54.0905 14.5645 53.3171 14.1484C52.5436 13.7324 51.9401 13.1523 51.5065 12.4082C51.0788 11.6641 50.8649 10.8262 50.8649 9.89453C50.8649 8.96875 51.0758 8.13379 51.4977 7.38965C51.9255 6.64551 52.5085 6.06543 53.2467 5.64941C53.985 5.22754 54.7995 5.0166 55.6901 5.0166C56.6628 5.0166 57.5094 5.2334 58.2301 5.66699C58.9567 6.09473 59.528 6.70996 59.944 7.5127C60.36 8.30957 60.5856 9.25293 60.6208 10.3428ZM55.7253 6.52832C55.0397 6.52832 54.4391 6.75977 53.9235 7.22266C53.4079 7.67969 53.0768 8.28613 52.9303 9.04199H58.7135C58.5436 8.28613 58.1833 7.67969 57.6325 7.22266C57.0817 6.75977 56.446 6.52832 55.7253 6.52832ZM72.1277 10.3428H64.3846C64.4959 11.2275 64.8387 11.9277 65.4129 12.4434C65.9871 12.9531 66.6902 13.208 67.5222 13.208C68.1316 13.208 68.6971 13.082 69.2185 12.8301C69.74 12.5781 70.1765 12.1914 70.5281 11.6699L72.1277 12.3906C71.6238 13.1758 70.9617 13.7705 70.1414 14.1748C69.3269 14.5732 68.4392 14.7725 67.4783 14.7725C66.4822 14.7725 65.5974 14.5645 64.824 14.1484C64.0506 13.7324 63.4471 13.1523 63.0135 12.4082C62.5857 11.6641 62.3719 10.8262 62.3719 9.89453C62.3719 8.96875 62.5828 8.13379 63.0047 7.38965C63.4324 6.64551 64.0154 6.06543 64.7537 5.64941C65.492 5.22754 66.3064 5.0166 67.1971 5.0166C68.1697 5.0166 69.0164 5.2334 69.7371 5.66699C70.4637 6.09473 71.0349 6.70996 71.451 7.5127C71.867 8.30957 72.0926 9.25293 72.1277 10.3428ZM67.2322 6.52832C66.5467 6.52832 65.9461 6.75977 65.4305 7.22266C64.9148 7.67969 64.5838 8.28613 64.4373 9.04199H70.2205C70.0506 8.28613 69.6902 7.67969 69.1394 7.22266C68.5887 6.75977 67.9529 6.52832 67.2322 6.52832ZM85.1815 12.8828V14.5H81.7099V13.1465C80.7841 14.1543 79.6796 14.6582 78.3964 14.6582C77.5058 14.6582 76.7177 14.4502 76.0321 14.0342C75.3524 13.6123 74.8222 13.041 74.4413 12.3203C74.0663 11.5996 73.8788 10.8027 73.8788 9.92969C73.8788 9.03906 74.078 8.21875 74.4765 7.46875C74.8808 6.71875 75.4374 6.12402 76.1464 5.68457C76.8554 5.23926 77.623 5.0166 78.4491 5.0166C79.0468 5.0166 79.6122 5.13672 80.1454 5.37695C80.6845 5.61719 81.206 5.99512 81.7099 6.51074V2.85449H79.9257V1.25488H83.5116V12.8828H85.1815ZM78.7392 13.041C79.3017 13.041 79.8085 12.8916 80.2597 12.5928C80.7108 12.2939 81.0653 11.8955 81.3232 11.3975C81.581 10.8994 81.7099 10.3662 81.7099 9.79785C81.7099 9.22363 81.581 8.69922 81.3232 8.22461C81.0653 7.75 80.7079 7.375 80.2509 7.09961C79.7939 6.82422 79.2782 6.68652 78.704 6.68652C78.1474 6.68652 77.6493 6.83594 77.2099 7.13477C76.7763 7.42773 76.4335 7.82031 76.1815 8.3125C75.9296 8.79883 75.8036 9.32031 75.8036 9.87695C75.8036 10.4746 75.9325 11.0137 76.1903 11.4941C76.4482 11.9746 76.7997 12.3525 77.245 12.6279C77.6903 12.9033 78.1884 13.041 78.7392 13.041ZM101.445 9.89453C101.445 10.791 101.232 11.6113 100.804 12.3555C100.376 13.0996 99.7931 13.6885 99.0548 14.1221C98.3165 14.5557 97.4992 14.7725 96.6027 14.7725C95.6769 14.7725 94.8419 14.5557 94.0978 14.1221C93.3537 13.6885 92.7736 13.0996 92.3576 12.3555C91.9474 11.6113 91.7423 10.791 91.7423 9.89453C91.7423 8.95703 91.9474 8.11914 92.3576 7.38086C92.7736 6.64258 93.3507 6.06543 94.089 5.64941C94.8273 5.22754 95.6652 5.0166 96.6027 5.0166C97.5109 5.0166 98.3341 5.23926 99.0724 5.68457C99.8107 6.12402 100.391 6.71582 100.813 7.45996C101.235 8.2041 101.445 9.01562 101.445 9.89453ZM96.6027 13.0059C97.1417 13.0059 97.6369 12.8652 98.088 12.584C98.5392 12.3027 98.8908 11.9248 99.1427 11.4502C99.3947 10.9756 99.5206 10.457 99.5206 9.89453C99.5206 9.34375 99.3947 8.83105 99.1427 8.35645C98.8908 7.88184 98.5392 7.50098 98.088 7.21387C97.6369 6.9209 97.1359 6.77441 96.5851 6.77441C96.046 6.77441 95.5509 6.91797 95.0997 7.20508C94.6486 7.48633 94.2941 7.86719 94.0363 8.34766C93.7785 8.82812 93.6496 9.34375 93.6496 9.89453C93.6496 10.4453 93.7785 10.9609 94.0363 11.4414C94.2941 11.9219 94.6515 12.3027 95.1085 12.584C95.5656 12.8652 96.0636 13.0059 96.6027 13.0059ZM109.226 3.10938L107.609 3.35547C107.556 2.75781 107.327 2.45898 106.923 2.45898C106.636 2.45898 106.443 2.56152 106.343 2.7666C106.249 2.97168 106.202 3.33789 106.202 3.86523V5.2627H107.784V6.88867H106.202V12.8828H107.943V14.5H103.03V12.8828H104.383V6.88867H103.03V5.2627H104.383V3.83008C104.383 2.98633 104.588 2.30078 104.998 1.77344C105.414 1.24609 106.027 0.982422 106.835 0.982422C107.503 0.982422 108.039 1.16113 108.444 1.51855C108.854 1.87012 109.115 2.40039 109.226 3.10938ZM117.72 2.90723L120.19 11.6172L122.633 2.90723H121.051V1.25488H127.133V2.90723H125.569L127.986 11.6172L130.464 2.90723H128.9V1.25488H133.76V2.90723H132.231L128.882 14.6406H127.01L124.022 4.09375L121.051 14.6406H119.197L115.813 2.90723H114.249V1.25488H119.311V2.90723H117.72ZM143.518 10.3428H135.775C135.886 11.2275 136.229 11.9277 136.803 12.4434C137.378 12.9531 138.081 13.208 138.913 13.208C139.522 13.208 140.088 13.082 140.609 12.8301C141.13 12.5781 141.567 12.1914 141.919 11.6699L143.518 12.3906C143.014 13.1758 142.352 13.7705 141.532 14.1748C140.717 14.5732 139.83 14.7725 138.869 14.7725C137.873 14.7725 136.988 14.5645 136.214 14.1484C135.441 13.7324 134.838 13.1523 134.404 12.4082C133.976 11.6641 133.762 10.8262 133.762 9.89453C133.762 8.96875 133.973 8.13379 134.395 7.38965C134.823 6.64551 135.406 6.06543 136.144 5.64941C136.882 5.22754 137.697 5.0166 138.588 5.0166C139.56 5.0166 140.407 5.2334 141.128 5.66699C141.854 6.09473 142.425 6.70996 142.841 7.5127C143.257 8.30957 143.483 9.25293 143.518 10.3428ZM138.623 6.52832C137.937 6.52832 137.337 6.75977 136.821 7.22266C136.305 7.67969 135.974 8.28613 135.828 9.04199H141.611C141.441 8.28613 141.081 7.67969 140.53 7.22266C139.979 6.75977 139.343 6.52832 138.623 6.52832ZM151.694 5.0166C152.544 5.0166 153.311 5.2334 153.997 5.66699C154.682 6.09473 155.216 6.6748 155.596 7.40723C155.983 8.13965 156.177 8.93066 156.177 9.78027C156.177 10.6592 155.98 11.4707 155.588 12.2148C155.201 12.959 154.665 13.5537 153.979 13.999C153.294 14.4385 152.526 14.6582 151.677 14.6582C151.003 14.6582 150.361 14.5205 149.752 14.2451C149.148 13.9697 148.674 13.5918 148.328 13.1113V14.5H144.927V12.8828H146.561V2.85449H144.927V1.25488H148.328V6.58105C149.254 5.53809 150.376 5.0166 151.694 5.0166ZM151.316 13.041C151.89 13.041 152.403 12.8857 152.854 12.5752C153.305 12.2646 153.654 11.8574 153.9 11.3535C154.146 10.8496 154.269 10.3135 154.269 9.74512C154.269 9.18262 154.143 8.66699 153.891 8.19824C153.639 7.72949 153.291 7.35742 152.845 7.08203C152.4 6.80664 151.896 6.66895 151.334 6.66895C150.771 6.66895 150.267 6.8125 149.822 7.09961C149.377 7.38672 149.028 7.77637 148.776 8.26855C148.524 8.76074 148.398 9.30859 148.398 9.91211C148.398 10.4863 148.527 11.0137 148.785 11.4941C149.043 11.9746 149.394 12.3525 149.84 12.6279C150.285 12.9033 150.777 13.041 151.316 13.041ZM166.409 4.54199C166.409 5.27441 166.219 5.89258 165.838 6.39648C165.463 6.90039 165.029 7.27246 164.537 7.5127C165.404 7.76465 166.031 8.16016 166.418 8.69922C166.81 9.23242 167.007 9.92383 167.007 10.7734C167.007 11.6523 166.787 12.3906 166.348 12.9883C165.914 13.5859 165.351 14.0254 164.66 14.3066C163.969 14.582 163.233 14.7197 162.454 14.7197C161.013 14.7197 159.893 14.3359 159.097 13.5684C158.3 12.7949 157.901 11.6113 157.901 10.0176H159.641C159.682 11.002 159.958 11.7695 160.468 12.3203C160.977 12.8711 161.675 13.1465 162.559 13.1465C163.35 13.1465 163.977 12.9326 164.44 12.5049C164.903 12.0713 165.135 11.5117 165.135 10.8262C165.135 10.1289 164.865 9.55176 164.326 9.09473C163.787 8.63184 162.958 8.40039 161.839 8.40039C161.563 8.40039 161.367 8.40625 161.25 8.41797V6.77441H161.496C162.099 6.77441 162.618 6.7334 163.052 6.65137C163.491 6.56934 163.86 6.38184 164.159 6.08887C164.464 5.79004 164.616 5.34766 164.616 4.76172C164.616 4.1875 164.443 3.68066 164.098 3.24121C163.758 2.80176 163.239 2.58203 162.542 2.58203C161.809 2.58203 161.267 2.80176 160.916 3.24121C160.57 3.68066 160.38 4.34863 160.345 5.24512H158.49V5.10449C158.49 4.00293 158.727 3.14453 159.202 2.5293C159.677 1.9082 160.204 1.50391 160.784 1.31641C161.37 1.12891 161.909 1.03516 162.401 1.03516C163.731 1.03516 164.73 1.36621 165.398 2.02832C166.072 2.68457 166.409 3.52246 166.409 4.54199Z" fill="#2C2C2E"/>
</svg>
