<svg width="209" height="142" viewBox="0 0 209 142" fill="none" xmlns="http://www.w3.org/2000/svg">
<path d="M47 34.6C73.8 34.6 94.2 56.2 94.2 84.6C94.2 113 73.8 134.6 47 134.6C20.2 134.6 0 113 0 84.6C0 56.2 20.2 34.6 47 34.6ZM10.6 84.6C10.6 108 26 125.2 47 125.2C68 125.2 83.6 108 83.6 84.6C83.6 61.2 68.6 44 46.8 44C25 44 10.6 61.6 10.6 84.6Z" fill="black"/>
<path d="M161.4 34.6C188.2 34.6 208.6 56.2 208.6 84.6C208.6 113 188.2 134.6 161.4 134.6C134.6 134.6 114.4 113 114.4 84.6C114.4 56.2 134.6 34.6 161.4 34.6ZM125 84.6C125 108 140.4 125.2 161.4 125.2C182.4 125.2 198 108 198 84.6C198 61.2 183 44 161.2 44C139.4 44 125 61.6 125 84.6Z" fill="black"/>
<path d="M116.97 131.8L104.3 141.81L91.62 131.8L104.3 121.79L116.97 131.8Z" fill="#0072FF"/>
<path d="M197.68 0.0910234C194.16 2.79102 190.65 5.50102 187.14 8.20102C171.62 8.84102 145.46 12.441 120.98 29.911C115.47 33.851 110.73 37.991 106.66 42.091L103.84 44.911L101.01 42.091C96.94 37.991 92.2 33.851 86.69 29.911C62.22 12.441 36.05 8.84102 20.54 8.20102C17.02 5.50102 13.51 2.79102 10 0.0910234C40.52 -0.958977 68.66 7.09102 91.36 23.421C95.7 26.531 99.88 29.981 103.84 33.691C107.8 29.981 111.98 26.531 116.31 23.421C139.02 7.09102 167.16 -0.958977 197.68 0.0910234Z" fill="#0072FF"/>
<path d="M57.7 84.6H47.1V102.48H57.7V84.6Z" fill="#0072FF"/>
<path d="M161.5 84.6H150.9V102.48H161.5V84.6Z" fill="#0072FF"/>
</svg>
