<svg width="387" height="146" viewBox="0 0 387 146" fill="none" xmlns="http://www.w3.org/2000/svg">
<path d="M27.6 0V54C39.8 43.6 52 38.6 63.4 38.6C81 38.6 89.2 50 89.2 63V126.8H104.6V135.8H62V126.8H78.8V65.2C78.8 53.8 73.2 48 62.2 48C51.2 48 38 54.8 27.6 64.4V126.8H43.2V135.8H0V126.8H17.2V9H0V0H27.6Z" fill="black"/>
<path d="M366.39 11.8V41.2H386.19V50.2H366.39V117.2C366.39 125.8 368.59 128.6 374.99 128.6C377.39 128.6 380.59 128.2 386.19 126.8V135.8C381.39 137.2 376.59 138 372.79 138C361.99 138 355.99 132 355.99 121.2V50.2H339.19V41.2H355.99V20L366.39 11.8Z" fill="black"/>
<path d="M165 38.6C191.8 38.6 212.2 60.2 212.2 88.6C212.2 117 191.8 138.6 165 138.6C138.2 138.6 118 117 118 88.6C118 60.2 138.2 38.6 165 38.6ZM128.6 88.6C128.6 112 144 129.2 165 129.2C186 129.2 201.6 112 201.6 88.6C201.6 65.2 186.6 48 164.8 48C143 48 128.6 65.6 128.6 88.6Z" fill="black"/>
<path d="M279.4 38.6C306.2 38.6 326.6 60.2 326.6 88.6C326.6 117 306.2 138.6 279.4 138.6C252.6 138.6 232.4 117 232.4 88.6C232.4 60.2 252.6 38.6 279.4 38.6ZM243 88.6C243 112 258.4 129.2 279.4 129.2C300.4 129.2 316 112 316 88.6C316 65.2 301 48 279.2 48C257.4 48 243 65.6 243 88.6Z" fill="black"/>
<path d="M234.97 135.8L222.3 145.81L209.62 135.8L222.3 125.79L234.97 135.8Z" fill="#0072FF"/>
<path d="M315.68 4.09102C312.16 6.79102 308.65 9.50102 305.14 12.201C289.62 12.841 263.46 16.441 238.98 33.911C233.47 37.851 228.73 41.991 224.66 46.091L221.84 48.911L219.01 46.091C214.94 41.991 210.2 37.851 204.69 33.911C180.22 16.441 154.05 12.841 138.54 12.201C135.02 9.50102 131.51 6.79102 128 4.09102C158.52 3.04102 186.66 11.091 209.36 27.421C213.7 30.531 217.88 33.981 221.84 37.691C225.8 33.981 229.98 30.531 234.31 27.421C257.02 11.091 285.16 3.04102 315.68 4.09102Z" fill="#0072FF"/>
<path d="M175.7 88.6H165.1V106.48H175.7V88.6Z" fill="#0072FF"/>
<path d="M279.5 88.6H268.9V106.48H279.5V88.6Z" fill="#0072FF"/>
</svg>
