<svg width="9" height="9" viewBox="0 0 9 9" fill="none" xmlns="http://www.w3.org/2000/svg">
  <path fill-rule="evenodd" clip-rule="evenodd" d="M4.75111 0.749023C4.75111 0.33481 4.41532 -0.000976562 4.00111 -0.000976562C3.5869 -0.000976562 3.25111 0.33481 3.25111 0.749023V3.2502H0.75C0.335786 3.2502 0 3.58598 0 4.0002C0 4.41441 0.335786 4.7502 0.75 4.7502H3.25111V7.25118C3.25111 7.6654 3.5869 8.00118 4.00111 8.00118C4.41532 8.00118 4.75111 7.6654 4.75111 7.25118V4.7502H7.25216C7.66637 4.7502 8.00216 4.41441 8.00216 4.0002C8.00216 3.58598 7.66637 3.2502 7.25216 3.2502H4.75111V0.749023Z" fill="#79B346" />
</svg>
  