<svg width="30" height="30" viewBox="0 0 30 30" fill="none" xmlns="http://www.w3.org/2000/svg">
  <rect width="30" height="30" rx="8" fill="#F7F7FA" />
  <path fill-rule="evenodd" clip-rule="evenodd" d="M18.2028 12.1141C18.0466 11.962 17.7934 11.962 17.6372 12.1141C17.481 12.2663 17.481 12.513 17.6372 12.6651L19.6344 14.6105H9.4C9.17909 14.6105 9 14.7849 9 15.0001C9 15.2153 9.17909 15.3897 9.4 15.3897H19.6342L17.6372 17.3349C17.481 17.487 17.481 17.7337 17.6372 17.8859C17.7934 18.038 18.0466 18.038 18.2028 17.8859L20.8828 15.2755C21.0391 15.1233 21.0391 14.8767 20.8828 14.7245L18.2028 12.1141Z" fill="black" fill-opacity="0.4" />
  <path d="M18.2726 12.0425C18.0776 11.8525 17.7624 11.8525 17.5674 12.0425C17.3709 12.2339 17.3709 12.5453 17.5674 12.7367L19.3884 14.5105H9.4C9.12635 14.5105 8.9 14.7272 8.9 15.0001C8.9 15.2729 9.12635 15.4897 9.4 15.4897H19.3883L17.5674 17.2633C17.3709 17.4547 17.3709 17.7661 17.5674 17.9575C17.7624 18.1475 18.0776 18.1475 18.2726 17.9575L20.9526 15.3471C21.1491 15.1557 21.1491 14.8443 20.9526 14.6529L18.2726 12.0425Z" stroke="black" stroke-opacity="0.4" stroke-width="0.2" stroke-linecap="round" stroke-linejoin="round" />
</svg>
  