<svg width="65" height="16" viewBox="0 0 65 16" fill="none" xmlns="http://www.w3.org/2000/svg">
<path d="M44.9948 9.44638C44.0927 8.10629 41.9166 7.39325 40.3595 6.97322C40.1775 6.92522 39.9895 6.87722 39.7884 6.82821H39.7724C38.9334 6.6162 37.9813 6.38118 37.2403 5.97916C36.3912 5.51413 35.9752 4.91109 35.9752 4.13604C35.9752 4.01004 35.9862 3.88503 36.0102 3.76102V3.73902C36.0222 3.68202 36.0372 3.62601 36.0552 3.57001C36.0572 3.56201 36.0592 3.55501 36.0622 3.54801V3.54001C36.1722 3.21899 36.3562 2.92797 36.5992 2.69095C37.2283 2.05391 38.2333 1.69589 39.3594 1.69589H39.3944C40.2235 1.71389 41.0395 1.90591 41.7906 2.25993C42.5406 2.59995 43.2177 3.08098 43.7877 3.67602L43.8017 5.29012V5.30712H45.2028V0.444814H43.8047V1.54688C43.8047 1.56288 43.7967 1.57888 43.7827 1.58688C43.7697 1.58688 43.7527 1.57888 43.7447 1.56988C43.1527 1.11986 42.4936 0.764834 41.7926 0.517818C41.0405 0.260802 40.2525 0.123794 39.4574 0.112793C38.5454 0.112793 37.8003 0.2188 37.1783 0.421812C36.6612 0.593823 36.1802 0.86184 35.7612 1.21086C35.3052 1.56688 34.9391 2.02491 34.6921 2.54695C34.4531 3.05098 34.3281 3.60101 34.3251 4.15805C34.3181 4.48807 34.3591 4.81709 34.4471 5.13611C34.5551 5.48813 34.7161 5.82215 34.9251 6.12617C34.9431 6.15517 34.9641 6.18217 34.9831 6.21017C35.0021 6.23818 35.0031 6.23718 35.0131 6.25018L35.0261 6.26718C35.9442 7.53526 37.9943 8.09729 39.4894 8.51032L39.5304 8.52132L39.8624 8.61332L40.2225 8.71033C41.0015 8.90134 41.7646 9.15536 42.5026 9.47038C42.8876 9.64039 43.2277 9.8974 43.4947 10.2234C43.7417 10.5244 43.9097 10.8835 43.9817 11.2665C44.0517 11.6485 44.0227 12.0425 43.8977 12.4096C43.7507 12.8326 43.5077 13.2166 43.1877 13.5296C42.8366 13.8427 42.4236 14.0787 41.9766 14.2237C41.5416 14.3637 41.0895 14.4447 40.6325 14.4647C39.9014 14.4997 39.1694 14.4167 38.4654 14.2197C37.2713 13.8417 36.1812 13.1126 35.4742 12.2215C35.4502 12.1925 35.4332 12.1595 35.4222 12.1235L35.4082 10.7355V10.7175H34.0071V15.7998H35.4092V14.3137C35.9952 14.8287 36.6732 15.2277 37.4093 15.4878C38.2693 15.8048 39.1754 15.9778 40.0915 15.9998H40.2055C40.9835 15.9998 42.8036 15.9998 44.2317 14.7907C44.6267 14.4487 44.9548 14.0357 45.1968 13.5716C45.4298 13.1256 45.5818 12.6416 45.6458 12.1425C45.7108 11.6645 45.6888 11.1785 45.5798 10.7085C45.4768 10.2514 45.2778 9.8204 44.9958 9.44638H44.9948Z" fill="#2C2C2E"/>
<path d="M31.1589 9.44638C30.2749 8.11329 28.0897 7.39625 26.5236 6.97422C26.3456 6.92722 26.1606 6.88222 25.9646 6.83321C24.2665 6.41419 22.1514 5.89015 22.1273 4.13204C22.1273 3.86703 22.1834 3.60501 22.2924 3.364C22.4094 3.10998 22.5724 2.87997 22.7724 2.68495C23.4094 2.05691 24.4085 1.69589 25.5256 1.69589H25.5606C26.3896 1.71389 27.2047 1.90591 27.9547 2.25993C28.7018 2.59995 29.3758 3.08098 29.9398 3.67602L29.9678 5.29012V5.30812H31.3689V0.444814H29.9708V1.54688C29.9708 1.56288 29.9628 1.57788 29.9498 1.58688C29.9388 1.58688 29.9268 1.58688 29.9108 1.56988C29.3188 1.11986 28.6598 0.764834 27.9587 0.517818C27.2067 0.260802 26.4186 0.123794 25.6236 0.112793C24.7065 0.112793 23.9595 0.2188 23.3394 0.421812C22.8234 0.594823 22.3454 0.86184 21.9273 1.21086C21.4713 1.56688 21.1053 2.02491 20.8583 2.54695C20.6183 3.05198 20.4922 3.60301 20.4892 4.16205C20.4822 4.49207 20.5232 4.82009 20.6093 5.13911C20.7153 5.48913 20.8723 5.82215 21.0743 6.12617C21.9543 7.49725 24.1075 8.08629 25.6786 8.51732L25.7156 8.52732L26.0276 8.61332L26.3566 8.70133L26.3876 8.70933C27.1667 8.90034 27.9297 9.15436 28.6678 9.46938C29.0548 9.64139 29.3958 9.9014 29.6658 10.2274C29.9138 10.5324 30.0828 10.8945 30.1549 11.2805C30.2239 11.6635 30.1939 12.0575 30.0678 12.4246C29.9198 12.8476 29.6748 13.2306 29.3538 13.5426C29.0048 13.8547 28.5938 14.0897 28.1477 14.2317C27.7117 14.3717 27.2587 14.4507 26.8006 14.4677C26.7066 14.4677 26.6076 14.4737 26.5076 14.4737C25.8676 14.4757 25.2305 14.3887 24.6145 14.2157C24.5435 14.1937 24.4715 14.1687 24.4025 14.1437H24.3915C24.2485 14.0927 24.1045 14.0377 23.9665 13.9727C23.2734 13.6686 22.6404 13.2456 22.0953 12.7216L22.0673 12.6946C21.9823 12.6096 21.8963 12.5196 21.8133 12.4246L21.7493 12.3516C21.7123 12.3076 21.6763 12.2656 21.6433 12.2205C21.6203 12.1915 21.6033 12.1585 21.5923 12.1235L21.5783 10.7355V10.7175H20.1572V15.7998H21.5733V14.3137C22.1594 14.8287 22.8374 15.2277 23.5734 15.4878C24.4335 15.8048 25.3396 15.9778 26.2556 15.9998H26.3696C27.1437 15.9998 28.9558 15.9998 30.3959 14.7907C30.7909 14.4487 31.1189 14.0357 31.3609 13.5716C31.5939 13.1286 31.747 12.6476 31.812 12.1515C31.877 11.6735 31.855 11.1875 31.746 10.7175C31.6439 10.2564 31.4439 9.8234 31.1599 9.44538L31.1589 9.44638Z" fill="#2C2C2E"/>
<path d="M16.788 14.5912L12.9577 8.80081C13.6068 8.82581 14.2528 8.7008 14.8448 8.43479C15.6819 8.00976 16.3549 7.47173 16.768 6.67568C17.104 6.01864 17.278 5.29059 17.275 4.55255C17.275 3.39147 16.817 2.2784 16.0009 1.45235C15.1159 0.650302 14.0108 0.259277 12.6207 0.259277H5.20124V1.86138H6.77634V14.6112H5.06323V15.9513H10.0365V14.6112H8.43444V8.82481H11.1146L14.8668 14.6112H13.1617V15.9513H18.5141V14.6112H16.84C16.82 14.6122 16.801 14.6052 16.787 14.5922L16.788 14.5912ZM8.43444 1.78937H12.5397C13.8008 1.78937 14.7688 2.2904 15.2589 3.15146C15.7389 4.03051 15.7219 5.09758 15.2139 5.96163C14.7108 6.81069 14.1158 7.27972 12.7977 7.27972H8.43344V1.78937H8.43444Z" fill="#2C2C2E"/>
<path d="M58.4307 11.3107C58.4307 9.38859 57.4596 7.9995 55.8485 7.40446C57.2146 6.68642 57.8177 5.50634 57.8177 4.29127C57.8177 1.48609 55.4645 0 52.3953 0C50.7202 0.0130008 48.9351 0.570035 47.715 2.28214L48.9891 3.11319C49.6712 2.19514 50.6442 1.48609 52.3953 1.48609C54.6245 1.48609 56.2066 2.39115 56.2066 4.11526C56.2066 5.83937 54.6205 6.68742 52.9964 6.68742H50.7842V8.27952H53.1244C55.1955 8.27952 56.8326 9.39559 56.7816 11.2927C56.6656 13.3098 54.8885 14.3929 52.5623 14.3929C51.0652 14.3929 49.4031 13.9219 48.1621 12.5948L48.0981 12.5708L47.011 13.7609L47.062 13.7739C48.6221 15.238 50.4772 15.995 52.5613 15.995C55.7715 15.989 58.4307 14.2519 58.4307 11.3117V11.3107Z" fill="#2C2C2E"/>
<path d="M4.03125 7.26855H0V8.91466H4.03125V7.26855Z" fill="#0072FF"/>
<path d="M64.1399 7.26855H60.1086V8.91466H64.1399V7.26855Z" fill="#0072FF"/>
</svg>
