<svg width="48" height="18" viewBox="0 0 48 18" fill="none" xmlns="http://www.w3.org/2000/svg">
    <path d="M1.57529 9.872C1.34063 9.872 1.13796 9.78666 0.967295 9.616C0.807295 9.44533 0.727295 9.23733 0.727295 8.992C0.727295 8.74666 0.807295 8.544 0.967295 8.384C1.13796 8.21333 1.34063 8.128 1.57529 8.128C1.80996 8.128 2.01263 8.21333 2.1833 8.384C2.35396 8.544 2.4393 8.74666 2.4393 8.992C2.4393 9.23733 2.35396 9.44533 2.1833 9.616C2.01263 9.78666 1.80996 9.872 1.57529 9.872Z" fill="#79B346" />
    <path d="M4.96592 9.872C4.73125 9.872 4.52859 9.78666 4.35792 9.616C4.19792 9.44533 4.11792 9.23733 4.11792 8.992C4.11792 8.74666 4.19792 8.544 4.35792 8.384C4.52859 8.21333 4.73125 8.128 4.96592 8.128C5.20059 8.128 5.40325 8.21333 5.57392 8.384C5.74459 8.544 5.82992 8.74666 5.82992 8.992C5.82992 9.23733 5.74459 9.44533 5.57392 9.616C5.40325 9.78666 5.20059 9.872 4.96592 9.872Z" fill="#79B346" />
    <path d="M8.35654 9.872C8.12188 9.872 7.91921 9.78666 7.74855 9.616C7.58855 9.44533 7.50854 9.23733 7.50854 8.992C7.50854 8.74666 7.58855 8.544 7.74855 8.384C7.91921 8.21333 8.12188 8.128 8.35654 8.128C8.59121 8.128 8.79388 8.21333 8.96454 8.384C9.13521 8.544 9.22054 8.74666 9.22054 8.992C9.22054 9.23733 9.13521 9.44533 8.96454 9.616C8.79388 9.78666 8.59121 9.872 8.35654 9.872Z" fill="#79B346" />
    <path d="M38.2205 0C33.2615 0 29.2205 4.041 29.2205 9C29.2205 13.959 33.2615 18 38.2205 18C43.1795 18 47.2205 13.959 47.2205 9C47.2205 4.041 43.1795 0 38.2205 0ZM42.5225 6.93L37.4195 12.033C37.2935 12.159 37.1225 12.231 36.9425 12.231C36.7625 12.231 36.5915 12.159 36.4655 12.033L33.9185 9.486C33.6575 9.225 33.6575 8.793 33.9185 8.532C34.1795 8.271 34.6115 8.271 34.8725 8.532L36.9425 10.602L41.5685 5.976C41.8295 5.715 42.2615 5.715 42.5225 5.976C42.7835 6.237 42.7835 6.66 42.5225 6.93Z" fill="#79B346" />
</svg>
    