<svg width="48" height="18" viewBox="0 0 48 18" fill="none" xmlns="http://www.w3.org/2000/svg">
    <path d="M1.57529 9.87201C1.34063 9.87201 1.13796 9.78667 0.967295 9.61601C0.807295 9.44534 0.727295 9.23734 0.727295 8.99201C0.727295 8.74667 0.807295 8.54401 0.967295 8.38401C1.13796 8.21334 1.34063 8.12801 1.57529 8.12801C1.80996 8.12801 2.01263 8.21334 2.1833 8.38401C2.35396 8.54401 2.4393 8.74667 2.4393 8.99201C2.4393 9.23734 2.35396 9.44534 2.1833 9.61601C2.01263 9.78667 1.80996 9.87201 1.57529 9.87201Z" fill="#F2635A" />
    <path d="M4.96592 9.87201C4.73125 9.87201 4.52859 9.78667 4.35792 9.61601C4.19792 9.44534 4.11792 9.23734 4.11792 8.99201C4.11792 8.74667 4.19792 8.54401 4.35792 8.38401C4.52859 8.21334 4.73125 8.12801 4.96592 8.12801C5.20059 8.12801 5.40325 8.21334 5.57392 8.38401C5.74459 8.54401 5.82992 8.74667 5.82992 8.99201C5.82992 9.23734 5.74459 9.44534 5.57392 9.61601C5.40325 9.78667 5.20059 9.87201 4.96592 9.87201Z" fill="#F2635A" />
    <path d="M8.35654 9.87201C8.12188 9.87201 7.91921 9.78667 7.74855 9.61601C7.58855 9.44534 7.50854 9.23734 7.50854 8.99201C7.50854 8.74667 7.58855 8.54401 7.74855 8.38401C7.91921 8.21334 8.12188 8.12801 8.35654 8.12801C8.59121 8.12801 8.79388 8.21334 8.96454 8.38401C9.13521 8.54401 9.22054 8.74667 9.22054 8.99201C9.22054 9.23734 9.13521 9.44534 8.96454 9.61601C8.79388 9.78667 8.59121 9.87201 8.35654 9.87201Z" fill="#F2635A" />
    <path d="M38.2205 0C33.2615 0 29.2205 4.041 29.2205 9C29.2205 13.959 33.2615 18 38.2205 18C43.1795 18 47.2205 13.959 47.2205 9C47.2205 4.041 43.1795 0 38.2205 0ZM41.2445 11.07C41.5055 11.331 41.5055 11.763 41.2445 12.024C41.1095 12.159 40.9385 12.222 40.7675 12.222C40.5965 12.222 40.4255 12.159 40.2905 12.024L38.2205 9.954L36.1505 12.024C36.0155 12.159 35.8445 12.222 35.6735 12.222C35.5025 12.222 35.3315 12.159 35.1965 12.024C34.9355 11.763 34.9355 11.331 35.1965 11.07L37.2665 9L35.1965 6.93C34.9355 6.669 34.9355 6.237 35.1965 5.976C35.4575 5.715 35.8895 5.715 36.1505 5.976L38.2205 8.046L40.2905 5.976C40.5515 5.715 40.9835 5.715 41.2445 5.976C41.5055 6.237 41.5055 6.669 41.2445 6.93L39.1745 9L41.2445 11.07Z" fill="#F2635A" />
</svg>
    