<svg width="47" height="18" viewBox="0 0 47 18" fill="none" xmlns="http://www.w3.org/2000/svg">
<path d="M0.848 9.87199C0.613333 9.87199 0.410667 9.78666 0.24 9.61599C0.08 9.44532 0 9.23732 0 8.99199C0 8.74666 0.08 8.54399 0.24 8.38399C0.410667 8.21332 0.613333 8.12799 0.848 8.12799C1.08267 8.12799 1.28533 8.21332 1.456 8.38399C1.62667 8.54399 1.712 8.74666 1.712 8.99199C1.712 9.23732 1.62667 9.44532 1.456 9.61599C1.28533 9.78666 1.08267 9.87199 0.848 9.87199Z" fill="#F2635A"/>
<path d="M4.23863 9.87199C4.00396 9.87199 3.80129 9.78666 3.63063 9.61599C3.47063 9.44532 3.39062 9.23732 3.39062 8.99199C3.39062 8.74666 3.47063 8.54399 3.63063 8.38399C3.80129 8.21332 4.00396 8.12799 4.23863 8.12799C4.47329 8.12799 4.67596 8.21332 4.84662 8.38399C5.01729 8.54399 5.10263 8.74666 5.10263 8.99199C5.10263 9.23732 5.01729 9.44532 4.84662 9.61599C4.67596 9.78666 4.47329 9.87199 4.23863 9.87199Z" fill="#F2635A"/>
<path d="M7.62925 9.87199C7.39458 9.87199 7.19192 9.78666 7.02125 9.61599C6.86125 9.44532 6.78125 9.23732 6.78125 8.99199C6.78125 8.74666 6.86125 8.54399 7.02125 8.38399C7.19192 8.21332 7.39458 8.12799 7.62925 8.12799C7.86392 8.12799 8.06658 8.21332 8.23725 8.38399C8.40792 8.54399 8.49325 8.74666 8.49325 8.99199C8.49325 9.23732 8.40792 9.44532 8.23725 9.61599C8.06658 9.78666 7.86392 9.87199 7.62925 9.87199Z" fill="#F2635A"/>
<path d="M23.4932 0C18.5342 0 14.4932 4.041 14.4932 9C14.4932 13.959 18.5342 18 23.4932 18C28.4522 18 32.4932 13.959 32.4932 9C32.4932 4.041 28.4522 0 23.4932 0ZM26.5172 11.07C26.7782 11.331 26.7782 11.763 26.5172 12.024C26.3822 12.159 26.2112 12.222 26.0402 12.222C25.8692 12.222 25.6982 12.159 25.5632 12.024L23.4932 9.954L21.4232 12.024C21.2882 12.159 21.1172 12.222 20.9462 12.222C20.7752 12.222 20.6042 12.159 20.4692 12.024C20.2082 11.763 20.2082 11.331 20.4692 11.07L22.5392 9L20.4692 6.93C20.2082 6.669 20.2082 6.237 20.4692 5.976C20.7302 5.715 21.1622 5.715 21.4232 5.976L23.4932 8.046L25.5632 5.976C25.8242 5.715 26.2562 5.715 26.5172 5.976C26.7782 6.237 26.7782 6.669 26.5172 6.93L24.4472 9L26.5172 11.07Z" fill="#F2635A"/>
<path d="M39.3412 9.87199C39.1066 9.87199 38.9039 9.78666 38.7332 9.61599C38.5732 9.44532 38.4932 9.23732 38.4932 8.99199C38.4932 8.74666 38.5732 8.54399 38.7332 8.38399C38.9039 8.21332 39.1066 8.12799 39.3412 8.12799C39.5759 8.12799 39.7786 8.21332 39.9492 8.38399C40.1199 8.54399 40.2052 8.74666 40.2052 8.99199C40.2052 9.23732 40.1199 9.44532 39.9492 9.61599C39.7786 9.78666 39.5759 9.87199 39.3412 9.87199Z" fill="#F2635A"/>
<path d="M42.7319 9.87199C42.4972 9.87199 42.2945 9.78666 42.1239 9.61599C41.9639 9.44532 41.8839 9.23732 41.8839 8.99199C41.8839 8.74666 41.9639 8.54399 42.1239 8.38399C42.2945 8.21332 42.4972 8.12799 42.7319 8.12799C42.9665 8.12799 43.1692 8.21332 43.3398 8.38399C43.5105 8.54399 43.5959 8.74666 43.5959 8.99199C43.5959 9.23732 43.5105 9.44532 43.3398 9.61599C43.1692 9.78666 42.9665 9.87199 42.7319 9.87199Z" fill="#F2635A"/>
<path d="M46.1225 9.87199C45.8878 9.87199 45.6851 9.78666 45.5145 9.61599C45.3545 9.44532 45.2745 9.23732 45.2745 8.99199C45.2745 8.74666 45.3545 8.54399 45.5145 8.38399C45.6851 8.21332 45.8878 8.12799 46.1225 8.12799C46.3571 8.12799 46.5598 8.21332 46.7305 8.38399C46.9011 8.54399 46.9865 8.74666 46.9865 8.99199C46.9865 9.23732 46.9011 9.44532 46.7305 9.61599C46.5598 9.78666 46.3571 9.87199 46.1225 9.87199Z" fill="#F2635A"/>
</svg>
