<svg width="47" height="18" viewBox="0 0 47 18" fill="none" xmlns="http://www.w3.org/2000/svg">
  <path d="M0.848 9.87201C0.613333 9.87201 0.410667 9.78667 0.24 9.61601C0.08 9.44534 0 9.23734 0 8.99201C0 8.74667 0.08 8.54401 0.24 8.38401C0.410667 8.21334 0.613333 8.12801 0.848 8.12801C1.08267 8.12801 1.28533 8.21334 1.456 8.38401C1.62667 8.54401 1.712 8.74667 1.712 8.99201C1.712 9.23734 1.62667 9.44534 1.456 9.61601C1.28533 9.78667 1.08267 9.87201 0.848 9.87201Z" fill="#2C2C2E" />
  <path d="M4.23863 9.87201C4.00396 9.87201 3.80129 9.78667 3.63063 9.61601C3.47063 9.44534 3.39062 9.23734 3.39062 8.99201C3.39062 8.74667 3.47063 8.54401 3.63063 8.38401C3.80129 8.21334 4.00396 8.12801 4.23863 8.12801C4.47329 8.12801 4.67596 8.21334 4.84662 8.38401C5.01729 8.54401 5.10263 8.74667 5.10263 8.99201C5.10263 9.23734 5.01729 9.44534 4.84662 9.61601C4.67596 9.78667 4.47329 9.87201 4.23863 9.87201Z" fill="#2C2C2E" />
  <path d="M7.62925 9.87201C7.39458 9.87201 7.19192 9.78667 7.02125 9.61601C6.86125 9.44534 6.78125 9.23734 6.78125 8.99201C6.78125 8.74667 6.86125 8.54401 7.02125 8.38401C7.19192 8.21334 7.39458 8.12801 7.62925 8.12801C7.86392 8.12801 8.06658 8.21334 8.23725 8.38401C8.40792 8.54401 8.49325 8.74667 8.49325 8.99201C8.49325 9.23734 8.40792 9.44534 8.23725 9.61601C8.06658 9.78667 7.86392 9.87201 7.62925 9.87201Z" fill="#2C2C2E" />
  <path fill-rule="evenodd" clip-rule="evenodd" d="M23.4932 18C28.4638 18 32.4932 13.9706 32.4932 9C32.4932 4.02944 28.4638 0 23.4932 0C18.5227 0 14.4932 4.02944 14.4932 9C14.4932 13.9706 18.5227 18 23.4932 18ZM27.7366 13.1595L28.9588 12.0484C29.0371 11.9882 29.1006 11.9108 29.1443 11.8222C29.188 11.7335 29.2107 11.6361 29.2107 11.5372C29.2107 11.4384 29.188 11.341 29.1443 11.2523C29.1006 11.1637 29.0371 11.0863 28.9588 11.0261C28.8243 10.9106 28.6587 10.8374 28.4828 10.8157C28.3069 10.7939 28.1284 10.8246 27.9699 10.9039V7.11502C27.8774 6.47816 27.5587 5.8959 27.0721 5.4748C26.5854 5.0537 25.9634 4.82195 25.3199 4.82195C24.6764 4.82195 24.0543 5.0537 23.5677 5.4748C23.0811 5.8959 22.7623 6.47816 22.6699 7.11502V10.8817C22.6339 11.1241 22.5119 11.3455 22.3263 11.5055C22.1408 11.6656 21.9038 11.7536 21.6588 11.7536C21.4137 11.7536 21.1768 11.6656 20.9912 11.5055C20.8056 11.3455 20.6837 11.1241 20.6477 10.8817V7.08169C20.7748 7.14722 20.9157 7.1815 21.0588 7.18169C21.2714 7.18873 21.4785 7.11306 21.6366 6.97058C21.7149 6.9104 21.7784 6.833 21.8221 6.74438C21.8658 6.65576 21.8885 6.55827 21.8885 6.45947C21.8885 6.36066 21.8658 6.26318 21.8221 6.17456C21.7784 6.08593 21.7149 6.00854 21.6366 5.94836L20.4032 4.83725C20.2386 4.70277 20.0325 4.62932 19.8199 4.62932C19.6073 4.62932 19.4012 4.70277 19.2366 4.83725L18.0143 5.94836C17.9396 6.01093 17.8795 6.08912 17.8383 6.17743C17.7971 6.26574 17.7757 6.36201 17.7757 6.45947C17.7757 6.55693 17.7971 6.6532 17.8383 6.74151C17.8795 6.82981 17.9396 6.90801 18.0143 6.97058C18.1486 7.08701 18.3149 7.15997 18.4915 7.17981C18.6681 7.19964 18.8465 7.16543 19.0032 7.08169V10.8817C19.0517 11.5422 19.3591 12.1568 19.8585 12.5918C20.3579 13.0267 21.009 13.2467 21.6699 13.2039C22.3278 13.2436 22.9747 13.0218 23.47 12.5869C23.9652 12.1521 24.2687 11.5392 24.3143 10.8817V7.11502C24.3405 6.86656 24.4577 6.63658 24.6434 6.46942C24.8291 6.30226 25.0701 6.20976 25.3199 6.20976C25.5697 6.20976 25.8107 6.30226 25.9964 6.46942C26.1821 6.63658 26.2993 6.86656 26.3254 7.11502V10.9039C26.1669 10.8246 25.9885 10.7939 25.8125 10.8157C25.6366 10.8374 25.471 10.9106 25.3366 11.0261C25.2618 11.0887 25.2017 11.1669 25.1605 11.2552C25.1193 11.3435 25.0979 11.4398 25.0979 11.5372C25.0979 11.6347 25.1193 11.731 25.1605 11.8193C25.2017 11.9076 25.2618 11.9858 25.3366 12.0484L26.5699 13.1595C26.7317 13.2955 26.9363 13.3703 27.1477 13.3706C27.3631 13.3739 27.5723 13.2989 27.7366 13.1595Z" fill="#2C2C2E" />
  <path d="M39.3412 9.87201C39.1066 9.87201 38.9039 9.78667 38.7332 9.61601C38.5732 9.44534 38.4932 9.23734 38.4932 8.99201C38.4932 8.74667 38.5732 8.54401 38.7332 8.38401C38.9039 8.21334 39.1066 8.12801 39.3412 8.12801C39.5759 8.12801 39.7786 8.21334 39.9492 8.38401C40.1199 8.54401 40.2052 8.74667 40.2052 8.99201C40.2052 9.23734 40.1199 9.44534 39.9492 9.61601C39.7786 9.78667 39.5759 9.87201 39.3412 9.87201Z" fill="#2C2C2E" />
  <path d="M42.7319 9.87201C42.4972 9.87201 42.2945 9.78667 42.1239 9.61601C41.9639 9.44534 41.8839 9.23734 41.8839 8.99201C41.8839 8.74667 41.9639 8.54401 42.1239 8.38401C42.2945 8.21334 42.4972 8.12801 42.7319 8.12801C42.9665 8.12801 43.1692 8.21334 43.3398 8.38401C43.5105 8.54401 43.5959 8.74667 43.5959 8.99201C43.5959 9.23734 43.5105 9.44534 43.3398 9.61601C43.1692 9.78667 42.9665 9.87201 42.7319 9.87201Z" fill="#2C2C2E" />
  <path d="M46.1225 9.87201C45.8878 9.87201 45.6851 9.78667 45.5145 9.61601C45.3545 9.44534 45.2745 9.23734 45.2745 8.99201C45.2745 8.74667 45.3545 8.54401 45.5145 8.38401C45.6851 8.21334 45.8878 8.12801 46.1225 8.12801C46.3571 8.12801 46.5598 8.21334 46.7305 8.38401C46.9011 8.54401 46.9865 8.74667 46.9865 8.99201C46.9865 9.23734 46.9011 9.44534 46.7305 9.61601C46.5598 9.78667 46.3571 9.87201 46.1225 9.87201Z" fill="#2C2C2E" />
</svg>
  