<svg width="9" height="2" viewBox="0 0 9 2" fill="none" xmlns="http://www.w3.org/2000/svg">
  <path d="M0.848 1.87199C0.613333 1.87199 0.410667 1.78666 0.24 1.61599C0.08 1.44532 0 1.23732 0 0.99199C0 0.746657 0.08 0.54399 0.24 0.38399C0.410667 0.213324 0.613333 0.127991 0.848 0.127991C1.08267 0.127991 1.28533 0.213324 1.456 0.38399C1.62667 0.54399 1.712 0.746657 1.712 0.99199C1.712 1.23732 1.62667 1.44532 1.456 1.61599C1.28533 1.78666 1.08267 1.87199 0.848 1.87199Z" fill="#2C2C2E"></path>
  <path d="M4.23863 1.87199C4.00396 1.87199 3.80129 1.78666 3.63063 1.61599C3.47063 1.44532 3.39062 1.23732 3.39062 0.99199C3.39062 0.746657 3.47063 0.54399 3.63063 0.38399C3.80129 0.213324 4.00396 0.127991 4.23863 0.127991C4.47329 0.127991 4.67596 0.213324 4.84662 0.38399C5.01729 0.54399 5.10263 0.746657 5.10263 0.99199C5.10263 1.23732 5.01729 1.44532 4.84662 1.61599C4.67596 1.78666 4.47329 1.87199 4.23863 1.87199Z" fill="#2C2C2E"></path>
  <path d="M7.62925 1.87199C7.39458 1.87199 7.19192 1.78666 7.02125 1.61599C6.86125 1.44532 6.78125 1.23732 6.78125 0.99199C6.78125 0.746657 6.86125 0.54399 7.02125 0.38399C7.19192 0.213324 7.39458 0.127991 7.62925 0.127991C7.86392 0.127991 8.06658 0.213324 8.23725 0.38399C8.40792 0.54399 8.49325 0.746657 8.49325 0.99199C8.49325 1.23732 8.40792 1.44532 8.23725 1.61599C8.06658 1.78666 7.86392 1.87199 7.62925 1.87199Z" fill="#2C2C2E"></path>
</svg>
